<svg width="1001" height="186" viewBox="0 0 1001 186" fill="none" xmlns="http://www.w3.org/2000/svg">
<path d="M272.73 10.9259H241.412V143.964C241.412 166.051 250.697 175.254 269.487 175.254H357.397V148.307H284.52C275.456 148.307 272.73 145.51 272.73 136.822V10.9259ZM452.086 179.009C409.642 179.009 384.146 156.48 384.146 112.232V10.9259H415.242V110.391C415.242 134.319 422.906 151.841 452.086 151.841C481.267 151.841 488.93 135.497 488.93 110.17V10.705H520.026V112.011C520.026 155.743 494.53 179.009 452.086 179.009ZM682.582 175.327V148.16H747.059C765.628 148.16 775.134 143.301 775.134 130.417C775.134 118.932 767.692 115.25 747.501 109.729L728.269 104.428C692.309 94.5622 680.298 83.0033 680.298 55.8361C680.298 28.669 696.509 10.705 735.711 10.705H794.367V38.3139H735.269C718.763 38.3139 710.731 41.9949 710.731 53.7747C710.731 64.8182 718.173 70.1192 737.185 74.9783L757.154 80.0584C790.535 88.5987 806.304 100.526 806.304 127.251C806.304 158.099 789.135 175.327 741.385 175.327H682.582ZM968.492 93.1634C968.492 59.591 947.859 34.7062 916.32 34.7062C884.782 34.7062 864.813 59.1493 864.813 93.1634C864.813 127.177 886.108 151.841 916.32 151.841C948.08 151.841 968.492 126.515 968.492 93.1634ZM832.39 93.3842C832.39 45.5289 865.992 7.53906 916.099 7.53906C966.207 7.53906 1000.99 43.4674 1000.99 93.3842C1000.99 143.301 965.323 178.567 916.394 178.567C864.002 178.567 832.464 142.197 832.464 93.3842H832.39ZM571.534 108.992L620.905 175.254H658.486L598.652 96.3291C595.409 91.9853 594.009 88.7459 594.009 85.5064C594.009 82.267 596.146 79.3223 600.052 74.9049L657.381 10.705H619.579L570.871 65.4808C563.429 73.9475 559.965 79.9847 559.965 85.7273C559.965 93.0897 564.166 99.0532 571.534 108.992Z" fill="#EDEDED"/>
<path fill-rule="evenodd" clip-rule="evenodd" d="M166.779 58.0472C166.779 50.2257 162.607 42.9984 155.833 39.0877L94.8296 3.86663C88.0562 -0.044086 79.7109 -0.0440829 72.9375 3.86663L11.9338 39.0877C5.1604 42.9984 0.987797 50.2257 0.987796 58.0472L0.987793 128.489C0.987792 136.311 5.16041 143.538 11.9338 147.449L72.9375 182.67C79.7109 186.581 88.0562 186.581 94.8296 182.67L155.833 147.449C162.607 143.538 166.779 136.311 166.779 128.489V58.0472ZM65.2766 49.5039C61.1461 49.5039 57.3294 51.7075 55.2642 55.2847L36.6641 87.5014C34.5989 91.0786 34.5989 95.4858 36.6642 99.0629L55.2642 131.28C57.3294 134.857 61.1461 137.06 65.2766 137.06H102.477C106.607 137.06 110.424 134.857 112.489 131.28L131.089 99.0629C133.154 95.4858 133.154 91.0786 131.089 87.5014L112.489 55.2846C110.424 51.7075 106.607 49.5039 102.477 49.5039H65.2766Z" fill="#EDEDED"/>
</svg>
