<svg xmlns="http://www.w3.org/2000/svg" viewBox="0 0 500 500"><g id="freepik--background-complete--inject-201"><polygon points="52.38 415.11 60.52 468.62 107.83 468.62 118.81 415.88 52.38 415.11" style="fill:#ebebeb"></polygon><path d="M112.2,449.41c0,.15-12.13.27-27.08.27s-27.07-.12-27.07-.27,12.12-.28,27.07-.28S112.2,449.25,112.2,449.41Z" style="fill:#fafafa"></path><path d="M112.38,446.77c0,.16-12.21.28-27.26.28s-27.26-.12-27.26-.28,12.21-.27,27.26-.27S112.38,446.62,112.38,446.77Z" style="fill:#fafafa"></path><path d="M112.29,443.8c0,.16-12.21.28-27.26.28s-27.26-.12-27.26-.28,12.2-.28,27.26-.28S112.29,443.65,112.29,443.8Z" style="fill:#fafafa"></path><path d="M66,465.57A85.22,85.22,0,0,1,63.6,452a43,43,0,0,1,1.45,6.74A41.34,41.34,0,0,1,66,465.57Z" style="fill:#fafafa"></path><path d="M69.17,465a54.87,54.87,0,0,1-.58-6.57,50.39,50.39,0,0,1-.31-6.6,32.24,32.24,0,0,1,.86,6.56A31.6,31.6,0,0,1,69.17,465Z" style="fill:#fafafa"></path><path d="M75,465a33.11,33.11,0,0,1-1.23-6.74,32.36,32.36,0,0,1-.36-6.84,60.91,60.91,0,0,1,.91,6.77A59.66,59.66,0,0,1,75,465Z" style="fill:#fafafa"></path><path d="M79.16,465.28a33.23,33.23,0,0,1-.66-6.85,34.06,34.06,0,0,1,.21-6.88,58.92,58.92,0,0,1,.35,6.86A60.77,60.77,0,0,1,79.16,465.28Z" style="fill:#fafafa"></path><path d="M86.45,465a37.15,37.15,0,0,1-.5-6.5A37.7,37.7,0,0,1,86,452a78.65,78.65,0,0,1,.44,13Z" style="fill:#fafafa"></path><path d="M91.77,465.28a82.25,82.25,0,0,1,.11-13.44,82.25,82.25,0,0,1-.11,13.44Z" style="fill:#fafafa"></path><path d="M96.76,464.57a45.72,45.72,0,0,1,.4-7,45.21,45.21,0,0,1,1-7,88.27,88.27,0,0,1-1.36,14Z" style="fill:#fafafa"></path><path d="M103.2,463.87a23.59,23.59,0,0,1,.79-6,24.2,24.2,0,0,1,1.76-5.77,50,50,0,0,1-1.21,5.89A53.23,53.23,0,0,1,103.2,463.87Z" style="fill:#fafafa"></path><path d="M98.64,309.52a1,1,0,0,1,0,.26c-.06.2-.14.45-.23.76l-.9,2.88c-.4,1.25-.88,2.78-1.38,4.58s-1.15,3.82-1.71,6.1-1.25,4.76-1.84,7.45-1.21,5.58-1.83,8.62c-1.13,6.1-2.17,12.85-2.9,20s-1,13.95-1.1,20.16c0,3.1,0,6.05.08,8.81s.2,5.32.34,7.67.32,4.45.46,6.31.31,3.46.46,4.77.24,2.27.31,3c0,.32.05.58.07.79a.92.92,0,0,1,0,.27,1,1,0,0,1-.06-.26q0-.32-.12-.78c-.1-.73-.24-1.73-.41-3s-.39-2.9-.56-4.76-.42-4-.55-6.32-.33-4.91-.4-7.68-.12-5.72-.13-8.83c.06-6.22.37-13.05,1.06-20.2s1.78-13.9,3-20c.63-3.05,1.2-5.95,1.88-8.63S93.36,326.27,94,324s1.25-4.3,1.79-6.09,1-3.31,1.48-4.55.75-2.17,1-2.86l.27-.74C98.6,309.6,98.63,309.51,98.64,309.52Z" style="fill:#ebebeb"></path><path d="M90.1,342.65a17.6,17.6,0,0,1,7.36-9.29c1.17-.72,2.65-1.31,3.89-.71,1.65.79,1.78,3.12,1.29,4.88a13,13,0,0,1-5.35,7.3,11,11,0,0,1-8,2" style="fill:#ebebeb"></path><path d="M87.23,365c1.22-4.62,4.91-11.19,8.73-14a5.53,5.53,0,0,1,2-1.05,2.3,2.3,0,0,1,2.12.45,3.27,3.27,0,0,1,.48,3.07,18.64,18.64,0,0,1-13.81,13.9" style="fill:#ebebeb"></path><path d="M86.44,384.72a27.05,27.05,0,0,1,8.81-11.08,4.19,4.19,0,0,1,3.07-1.09c1.67.3,2.43,2.34,2.28,4-.3,3.49-3,6.28-5.71,8.44a35.1,35.1,0,0,1-8.15,4.19" style="fill:#ebebeb"></path><path d="M86.88,398.88a26,26,0,0,1,7.5-8.53,5.33,5.33,0,0,1,2.25-1,2.25,2.25,0,0,1,2.2.84c.76,1.1,0,2.59-.77,3.66a21.35,21.35,0,0,1-10.69,7.84" style="fill:#ebebeb"></path><path d="M86.51,393.13a83.17,83.17,0,0,0-10.72-10.92c-.61-.52-1.38-1.06-2.13-.81a1.6,1.6,0,0,0-1,1.44,4.15,4.15,0,0,0,.41,1.79,20.77,20.77,0,0,0,13.8,11.61" style="fill:#ebebeb"></path><path d="M86.85,374.7l-8.42-10.26a10,10,0,0,0-2.73-2.59,3.46,3.46,0,0,0-3.59-.05A3.4,3.4,0,0,0,71,365.19a8.86,8.86,0,0,0,1.64,3.38,25,25,0,0,0,6.13,6.51c2.48,1.7,4.72,2.81,7.69,2.37" style="fill:#ebebeb"></path><path d="M88,354a29.29,29.29,0,0,0-8.47-12.72A4.88,4.88,0,0,0,77.34,340c-1.68-.33-3.31,1.08-3.86,2.71a6.92,6.92,0,0,0,.77,5.58,14.59,14.59,0,0,0,4,4.18,33.82,33.82,0,0,0,9.36,5.06" style="fill:#ebebeb"></path><path d="M91.39,335.46c-.82-5.95-3.91-10.9-7.5-15.71-.76-1-1.82-2.1-3.07-1.91a2.46,2.46,0,0,0-1.76,1.51,5.83,5.83,0,0,0-.33,2.38,18.38,18.38,0,0,0,11.93,16.42" style="fill:#ebebeb"></path><path d="M93.75,326a48.84,48.84,0,0,1-.31-9.2,16.46,16.46,0,0,1,3-8.57,7.06,7.06,0,0,1,3.06-2.44,3.86,3.86,0,0,1,3.75.5,4.1,4.1,0,0,1,1.29,3.3,10.46,10.46,0,0,1-1,3.53c-2.25,5.39-6,11.37-9.89,12.88" style="fill:#ebebeb"></path><path d="M57.06,333.11a3.44,3.44,0,0,1,0,.76c0,.55,0,1.26,0,2.16s0,2.08,0,3.41.06,2.85.17,4.52c.14,3.35.47,7.33,1,11.73s1.29,9.2,2.33,14.21,2.31,9.71,3.57,14,2.61,8,3.82,11.13c.57,1.58,1.17,3,1.67,4.21s.94,2.29,1.32,3.15l.84,2a5.46,5.46,0,0,1,.27.71,3.21,3.21,0,0,1-.37-.66l-.94-1.95c-.41-.84-.89-1.88-1.41-3.11s-1.15-2.61-1.75-4.18c-1.26-3.12-2.6-6.89-3.94-11.13s-2.56-9-3.63-14-1.77-9.85-2.29-14.26S57.05,347.34,57,344c-.09-1.68-.07-3.2-.09-4.53s0-2.49.05-3.43,0-1.61.08-2.16A3.7,3.7,0,0,1,57.06,333.11Z" style="fill:#e0e0e0"></path><path d="M58.38,357.51a12.55,12.55,0,0,1,3-7.91,3,3,0,0,1,2.49-1.32c1.3.19,1.89,1.74,1.93,3.05a9.2,9.2,0,0,1-2.07,6.12,7.84,7.84,0,0,1-5,3.11" style="fill:#e0e0e0"></path><path d="M61.24,373.36c-.16-3.4.93-8.67,2.92-11.44a4.13,4.13,0,0,1,1.13-1.15,1.66,1.66,0,0,1,1.54-.14,2.32,2.32,0,0,1,1,2,13.3,13.3,0,0,1-6.4,12.44" style="fill:#e0e0e0"></path><path d="M64.94,386.94a19.37,19.37,0,0,1,3.61-9.44,3,3,0,0,1,1.86-1.4c1.2-.16,2.16,1.07,2.42,2.25.55,2.44-.66,4.91-2.07,7a25.22,25.22,0,0,1-4.65,4.6" style="fill:#e0e0e0"></path><path d="M68.29,396.49a18.56,18.56,0,0,1,3.27-7.43,4,4,0,0,1,1.31-1.17,1.63,1.63,0,0,1,1.68.1c.75.59.59,1.76.27,2.66a15.23,15.23,0,0,1-5.6,7.64" style="fill:#e0e0e0"></path><path d="M66.8,392.65a59.44,59.44,0,0,0-9.65-5.13,1.73,1.73,0,0,0-1.63-.09,1.18,1.18,0,0,0-.36,1.2,3,3,0,0,0,.67,1.13,14.81,14.81,0,0,0,11.89,4.93" style="fill:#e0e0e0"></path><path d="M63.07,380l-8-5.17a7,7,0,0,0-2.41-1.18,2.49,2.49,0,0,0-2.46.74,2.41,2.41,0,0,0,0,2.56A6.42,6.42,0,0,0,52,378.92,18,18,0,0,0,57.62,382c2.05.62,3.82.89,5.75,0" style="fill:#e0e0e0"></path><path d="M59.4,365.66a21,21,0,0,0-8.51-6.84,3.49,3.49,0,0,0-1.78-.4,2.66,2.66,0,0,0-2,2.68,5,5,0,0,0,1.73,3.63,10.37,10.37,0,0,0,3.59,2,24.19,24.19,0,0,0,7.47,1.43" style="fill:#e0e0e0"></path><path d="M57.71,352.34c-1.84-3.88-5-6.58-8.49-9.09-.74-.52-1.69-1-2.5-.63a1.7,1.7,0,0,0-.87,1.4,4.14,4.14,0,0,0,.28,1.7,13.15,13.15,0,0,0,11.66,8.61" style="fill:#e0e0e0"></path><path d="M57.28,345.4a35.14,35.14,0,0,1-2.19-6.2,11.73,11.73,0,0,1,.23-6.49,5.15,5.15,0,0,1,1.56-2.32,2.8,2.8,0,0,1,2.66-.47,2.93,2.93,0,0,1,1.59,2,7.32,7.32,0,0,1,.11,2.6c-.36,4.16-1.63,9-4,10.9" style="fill:#e0e0e0"></path><path d="M116.88,332.59a5,5,0,0,1,.06.76c0,.54,0,1.26.08,2.16s.06,2.08,0,3.42,0,2.85-.08,4.53c-.1,3.36-.38,7.35-.86,11.77s-1.26,9.24-2.3,14.26-2.33,9.74-3.63,14-2.68,8-3.94,11.13c-.59,1.57-1.22,2.95-1.74,4.18s-1,2.27-1.42,3.11l-.94,2a3.6,3.6,0,0,1-.36.66,3.42,3.42,0,0,1,.26-.71c.22-.5.5-1.16.85-2s.83-1.91,1.32-3.15,1.1-2.63,1.67-4.21c1.21-3.12,2.51-6.89,3.81-11.13s2.52-8.95,3.58-13.95,1.78-9.82,2.33-14.21.83-8.38,1-11.73c.11-1.67.12-3.19.16-4.52s.06-2.47,0-3.41,0-1.61,0-2.16A3.44,3.44,0,0,1,116.88,332.59Z" style="fill:#ebebeb"></path><path d="M115.56,357a12.55,12.55,0,0,0-3-7.91,3,3,0,0,0-2.5-1.32c-1.29.19-1.88,1.74-1.93,3.05a9.26,9.26,0,0,0,2.08,6.12,7.77,7.77,0,0,0,5,3.11" style="fill:#ebebeb"></path><path d="M112.7,372.84c.16-3.4-.94-8.67-2.93-11.44a3.81,3.81,0,0,0-1.12-1.14,1.65,1.65,0,0,0-1.55-.15,2.34,2.34,0,0,0-1,2,13.31,13.31,0,0,0,6.41,12.43" style="fill:#ebebeb"></path><path d="M109,386.42a19.29,19.29,0,0,0-3.62-9.44,3,3,0,0,0-1.85-1.4c-1.21-.16-2.16,1.07-2.43,2.25-.54,2.44.67,4.92,2.07,7a25.75,25.75,0,0,0,4.65,4.61" style="fill:#ebebeb"></path><path d="M105.65,396a18.56,18.56,0,0,0-3.27-7.43,4.07,4.07,0,0,0-1.31-1.17,1.65,1.65,0,0,0-1.69.1c-.75.59-.58,1.76-.26,2.66a15.27,15.27,0,0,0,5.59,7.64" style="fill:#ebebeb"></path><path d="M107.14,392.13a59.77,59.77,0,0,1,9.64-5.13,1.73,1.73,0,0,1,1.63-.09,1.14,1.14,0,0,1,.36,1.2,3,3,0,0,1-.66,1.13,14.83,14.83,0,0,1-11.9,4.93" style="fill:#ebebeb"></path><path d="M110.87,379.51l7.94-5.17a7.17,7.17,0,0,1,2.42-1.18,2.5,2.5,0,0,1,2.46.74,2.45,2.45,0,0,1,0,2.56,6.3,6.3,0,0,1-1.84,1.94,18,18,0,0,1-5.59,3.12c-2,.63-3.81.89-5.74,0" style="fill:#ebebeb"></path><path d="M114.54,365.14a21,21,0,0,1,8.5-6.84,3.53,3.53,0,0,1,1.79-.4,2.65,2.65,0,0,1,2,2.68,5,5,0,0,1-1.72,3.63,10.42,10.42,0,0,1-3.6,2,24.07,24.07,0,0,1-7.46,1.43" style="fill:#ebebeb"></path><path d="M116.23,351.82c1.83-3.87,5-6.58,8.49-9.09a2.58,2.58,0,0,1,2.49-.63,1.74,1.74,0,0,1,.88,1.41,4.13,4.13,0,0,1-.29,1.69,13.13,13.13,0,0,1-11.66,8.61" style="fill:#ebebeb"></path><path d="M116.66,344.88a35.33,35.33,0,0,0,2.19-6.19,11.86,11.86,0,0,0-.24-6.5,5.07,5.07,0,0,0-1.56-2.32,2.76,2.76,0,0,0-2.66-.46,2.9,2.9,0,0,0-1.58,2,7.56,7.56,0,0,0-.12,2.6c.37,4.16,1.63,9,4,10.9" style="fill:#ebebeb"></path><path d="M47,404.51v10a3.94,3.94,0,0,0,3.94,3.94H119.4a3.94,3.94,0,0,0,3.94-3.94v-10Z" style="fill:#ebebeb"></path><polygon points="52.89 418.47 53.46 421.66 116.67 426.16 118.27 418.47 52.89 418.47" style="fill:#e0e0e0"></polygon><rect x="308.96" y="46.52" width="158.12" height="261.74" style="fill:#e0e0e0"></rect><rect x="303.7" y="46.52" width="158.12" height="261.74" style="fill:#ebebeb"></rect><rect x="310.44" y="51.83" width="144.66" height="251.13" style="fill:#fafafa"></rect><rect x="337.98" y="84.46" width="88.95" height="185.86" style="fill:#ebebeb"></rect><path d="M338,204.56c-.21-17.37,15.4-34.32,32.6-36.74,8.19-1.16,16.9.47,24.56-2.67,13.68-5.61,18-23.77,31.79-29.16l.63,134.34H338Z" style="fill:#e0e0e0"></path><rect x="158.18" y="49.24" width="99.31" height="103.52" style="fill:#e0e0e0"></rect><rect x="151.46" y="49.24" width="99.31" height="103.52" style="fill:#fafafa"></rect><path d="M250.8,152.79H151.43V49.21H250.8Zm-99.31-.06h99.24V49.27H151.49Z" style="fill:#e0e0e0"></path><rect x="164.81" y="63.16" width="72.61" height="75.69" style="fill:#fafafa"></rect><path d="M164.81,139.35a12,12,0,0,1-1.79,2.08c-1.16,1.23-2.79,2.88-4.62,4.68s-3.51,3.4-4.74,4.54a11.85,11.85,0,0,1-2.1,1.75,11.89,11.89,0,0,1,1.78-2.08c1.16-1.22,2.79-2.88,4.63-4.68s3.51-3.42,4.75-4.55A11.11,11.11,0,0,1,164.81,139.35Z" style="fill:#e0e0e0"></path><path d="M237.41,139.16A11.66,11.66,0,0,1,239.5,141c1.22,1.16,2.88,2.79,4.68,4.62s3.4,3.5,4.54,4.74a11.85,11.85,0,0,1,1.75,2.1,11.08,11.08,0,0,1-2.08-1.78c-1.22-1.16-2.88-2.79-4.69-4.63s-3.41-3.51-4.55-4.75A12.23,12.23,0,0,1,237.41,139.16Z" style="fill:#e0e0e0"></path><path d="M237.22,63.36A11.44,11.44,0,0,1,239,61.28c1.16-1.23,2.79-2.88,4.61-4.68s3.51-3.41,4.75-4.54a11.45,11.45,0,0,1,2.1-1.75,12.05,12.05,0,0,1-1.79,2.07c-1.16,1.23-2.79,2.89-4.62,4.69s-3.52,3.41-4.75,4.55A11.5,11.5,0,0,1,237.22,63.36Z" style="fill:#e0e0e0"></path><path d="M164.61,63.55a12.39,12.39,0,0,1-2.08-1.8c-1.23-1.16-2.88-2.79-4.68-4.61s-3.41-3.51-4.54-4.75a11.62,11.62,0,0,1-1.75-2.09,11.14,11.14,0,0,1,2.07,1.78c1.23,1.16,2.89,2.79,4.69,4.62s3.41,3.52,4.55,4.76A10.75,10.75,0,0,1,164.61,63.55Z" style="fill:#e0e0e0"></path><path d="M237.22,138.84a2.45,2.45,0,0,1,0-.36c0-.26,0-.61,0-1.06,0-.95,0-2.31,0-4.09,0-3.58,0-8.8-.07-15.42,0-13.26-.08-32.14-.14-54.75l.28.28-72.41,0h0l.32-.32c0,27.78,0,53.77,0,75.68l-.27-.27,52.43.14,14.72.07,3.9,0,1,0h.35a1.14,1.14,0,0,1-.32,0l-1,0-3.84,0-14.67.07-52.6.14h-.28v-.28c0-21.91,0-47.9,0-75.68v-.32h.32l72.41,0h.28v.28c-.06,22.68-.11,41.63-.15,54.93,0,6.6,0,11.79-.07,15.36,0,1.75,0,3.1,0,4,0,.44,0,.78,0,1S237.22,138.85,237.22,138.84Z" style="fill:#e0e0e0"></path><path d="M203.24,92.86A13,13,0,0,0,180.49,95a15,15,0,0,0,.18,11.46,20.52,20.52,0,0,0,7.5,8.85c8.49,5.78,20.8,5.52,28.69-1.05a15.79,15.79,0,0,0,5.82-9.56,11.89,11.89,0,0,0-17.6-12.05" style="fill:#e0e0e0"></path><path d="M203.27,92.84a4.52,4.52,0,0,0-4.8-3.31c.94,1.13,1.89,2.25,2.84,3.38a4.41,4.41,0,0,0-3.49,2.74c-.14.35-.18.83.15,1a.88.88,0,0,0,.72-.08l3.45-1.43a11.81,11.81,0,0,0,2.05,5.36,14,14,0,0,0,1.31-5.39l3.81,1.69A5.78,5.78,0,0,0,207.52,94a9.5,9.5,0,0,0,3.19-1.24c.29-.18.61-.5.48-.82s-.41-.31-.68-.33a12.53,12.53,0,0,0-7.27,1.51" style="fill:#ebebeb"></path><path d="M203,94.26a24.82,24.82,0,0,0-1-11.51c.91-.2,2-.34,2.62.39a2.42,2.42,0,0,1,.38,1.53,26.85,26.85,0,0,1-2,10.62" style="fill:#ebebeb"></path><path d="M184.5,108.09a2.92,2.92,0,0,1-.6-.6,10.19,10.19,0,0,1-1.27-1.92A11.79,11.79,0,0,1,185,91.5a10.12,10.12,0,0,1,1.83-1.4,2.27,2.27,0,0,1,.76-.37,23.2,23.2,0,0,0-2.38,2,12,12,0,0,0-2.27,13.73A24.52,24.52,0,0,0,184.5,108.09Z" style="fill:#fff"></path><path d="M188.33,111c0,.11-.64,0-1.25-.46s-.93-1-.84-1,.52.29,1.08.69S188.37,110.87,188.33,111Z" style="fill:#fff"></path></g><g id="freepik--speech-bubble--inject-201"><path d="M124.5,145.74s.71.52,2,1.55l5.93,4.53L155,169.13l.78.6-.91-.38c-5.21-2.15-11.14-4.28-17.64-6.54s-13.58-4.68-21-7.72l.25-.13-5.66,36.88-.06.4-.29-.28L85,166.9l.29,0L53.51,189l-.5.35.12-.6c2.11-10.18,4.35-21,6.64-32.09l.22.28L23.6,151.23l-.72-.12.63-.36,24.73-14.38,3.84-2.23-.08.37c-3.17-4.6-5.94-9.38-8.66-14.15S38,110.81,35.52,106l-.41-.77.76.43L64.76,122l-.37.2q.72-10.6,1.43-20.86.32-5.11.62-10.16c.09-1.68.18-3.35.26-5,0-.83.06-1.66.1-2.49l0-1.23V81.8c0-.18,0-.46,0-.48l.3-.41.09.13,21,28.79h-.36L110.66,80l.28-.37.08.46Q114.31,100.51,117,117l-.17-.13,30.23-1h.26l-.16.21-16.76,22L126,143.8c-1,1.28-1.5,1.94-1.5,1.94l1.43-1.93,4.29-5.7L146.91,116l.11.2-30.22,1h-.15l0-.14q-2.7-16.52-6-36.92l.36.09L88.21,110.1l-.18.24-.18-.24L66.79,81.32l.39-.28a2.41,2.41,0,0,1,.12.74v.63l0,1.25-.09,2.49c-.09,1.67-.17,3.34-.26,5-.2,3.36-.41,6.75-.61,10.17q-.7,10.25-1.43,20.85l0,.4-.35-.19-28.9-16.25.36-.34q3.77,7.14,7.81,14.3c2.71,4.75,5.49,9.53,8.63,14.1l.16.24-.24.14-3.84,2.23L23.77,151.2l-.09-.48,36.39,5.72.26,0,0,.24c-2.3,11.1-4.55,21.94-6.67,32.13l-.38-.25L85,166.54l.16-.1.13.13,25.52,25.09-.35.12c2.07-13.36,4-25.81,5.72-36.88l0-.22.21.08c7.37,3.05,14.44,5.46,20.93,7.75s12.43,4.43,17.64,6.61l-.13.22-22.53-17.48c-2.57-2-4.53-3.53-5.87-4.56Z" style="fill:#263238"></path><path d="M78.56,121.11l1.08,17a2.77,2.77,0,0,0,2.6,2.59h0a2.77,2.77,0,0,0,2.91-2.46L87,121.15a2.16,2.16,0,0,0-2.18-2.41l-4.16.06A2.18,2.18,0,0,0,78.56,121.11Z" style="fill:#263238"></path><path d="M86.76,150.32a4.16,4.16,0,1,1-2.64-5.25A4.15,4.15,0,0,1,86.76,150.32Z" style="fill:#263238"></path><path d="M91.55,121.11l1.08,17a2.78,2.78,0,0,0,2.6,2.59h0a2.77,2.77,0,0,0,2.91-2.46L100,121.15a2.16,2.16,0,0,0-2.18-2.41l-4.16.06A2.18,2.18,0,0,0,91.55,121.11Z" style="fill:#263238"></path><path d="M99.75,150.32a4.16,4.16,0,1,1-2.64-5.25A4.15,4.15,0,0,1,99.75,150.32Z" style="fill:#263238"></path></g><g id="freepik--Character--inject-201"><path d="M281.38,188.49c1.33-9.74,12.13-18.2,8.55-27.35-2.4-6.13-10.34-8.65-12.8-14.76-1.71-4.23-.37-9.32-2.45-13.38-2.84-5.55-10.51-6.59-14.65-11.27-2.84-3.22-3.67-7.77-6.14-11.28s-8.39-5.42-10.79-1.86l24.76,69.66c3.71,17.23,5.48,34.5,9.19,51.73,5.22,2.58,11.62-2.43,12.69-8.16s-1.45-11.44-4-16.7S280.6,194.26,281.38,188.49Z" style="fill:#263238"></path><path d="M236.24,203.33l-29-76.15-12.55-16.37c-2.86-8.24-14.15-3.75-19.91,2.8s-4.4,25-2.77,33.52.87,10.79.18,19.48c-.92,11.75-8.54,23.21-5.27,34.52,2.3,8,9.48,13.53,13.24,20.92,4.7,9.23,3.63,20.23,5.6,30.4s9.75,21.14,20,19.82l-.87-8.63c12.62,4.88,28.41-.84,35-12.67C247.86,236.57,242.11,218.72,236.24,203.33Z" style="fill:#263238"></path><path d="M184.3,147.23a41.9,41.9,0,0,1,33-46.29l2.13-.45c23.18-3.46,39.08,14.29,41.9,37.57L282.68,262H228.25l-8.32-41s-22.74,1.2-27.63-20.76C189.94,189.62,186.86,167.39,184.3,147.23Z" style="fill:#ffbe9d"></path><path d="M219.74,221s14.23-2.1,27.07-14.49c0,0-3.46,17.27-25.84,19.89Z" style="fill:#eb996e"></path><path d="M194.27,165.08a3.21,3.21,0,0,0,3.7,2.53,3.06,3.06,0,0,0,2.64-3.51,3.21,3.21,0,0,0-3.69-2.54A3.08,3.08,0,0,0,194.27,165.08Z" style="fill:#263238"></path><path d="M191.29,157c.48.33,2.49-1.93,5.87-2.63s6.22.47,6.5,0c.14-.22-.41-.88-1.65-1.44a8.84,8.84,0,0,0-5.31-.49,8.41,8.41,0,0,0-4.57,2.61C191.26,156.05,191.06,156.87,191.29,157Z" style="fill:#263238"></path><path d="M224.73,158.52a3.22,3.22,0,0,0,3.7,2.53,3.07,3.07,0,0,0,2.65-3.51,3.22,3.22,0,0,0-3.7-2.54A3.08,3.08,0,0,0,224.73,158.52Z" style="fill:#263238"></path><path d="M224.68,150.67c.47.33,2.49-1.93,5.87-2.63s6.22.47,6.5,0c.14-.22-.41-.88-1.66-1.44a8.79,8.79,0,0,0-5.3-.49,8.41,8.41,0,0,0-4.57,2.61C224.65,149.71,224.45,150.53,224.68,150.67Z" style="fill:#263238"></path><path d="M217.66,178.34c0-.2-2.2-.12-5.7.16-.88.09-1.74.09-2-.47a4.51,4.51,0,0,1,0-2.68q.57-3.39,1.18-7.12c1.58-10.11,2.54-18.35,2.13-18.41s-2,8.09-3.61,18.2c-.37,2.49-.72,4.86-1.06,7.13a5.11,5.11,0,0,0,.26,3.48,2.21,2.21,0,0,0,1.69,1,6.33,6.33,0,0,0,1.51-.1C215.56,179,217.69,178.53,217.66,178.34Z" style="fill:#263238"></path><path d="M222,143.75c.77.64,3.53-1.49,7.27-3.11s7.14-2.33,7.18-3.33c0-.47-.94-.95-2.54-1.06a13.69,13.69,0,0,0-11,4.91C222,142.42,221.68,143.44,222,143.75Z" style="fill:#263238"></path><path d="M191.64,146.86c.42.91,2.92.65,5.72,1.25s5,1.7,5.77,1c.32-.34.13-1.19-.74-2.15a8.48,8.48,0,0,0-9.25-1.83C192,145.72,191.47,146.43,191.64,146.86Z" style="fill:#263238"></path><path d="M263.66,118.72s-1-4.9-8.08-9.32l-13.34,2.94c4.62,1.42,3.87,7.4,3.22,8.81-2.39,16.46,11.11,22.38,11.11,22.38l2.13,13.56c.19,3.53,2.05,6,5.51,5.31h0s1.81-10.88,1.89-15.2C266.25,138.83,266.29,126.66,263.66,118.72Z" style="fill:#263238"></path><path d="M261.4,155.05c.34-.24,14.19-7.64,16.86,7.51s-13.09,14.71-13.19,14.28S261.4,155.05,261.4,155.05Z" style="fill:#ffbe9d"></path><path d="M267.36,170.56c.06-.06.3.14.78.26a2.66,2.66,0,0,0,2-.3c1.5-.87,2.4-3.65,2-6.4a9,9,0,0,0-1.41-3.65,3.1,3.1,0,0,0-2.34-1.67,1.35,1.35,0,0,0-1.43,1c-.13.46,0,.74-.06.78s-.37-.19-.36-.84a1.77,1.77,0,0,1,.43-1.06,2,2,0,0,1,1.39-.64,3.76,3.76,0,0,1,3.18,1.86,9.14,9.14,0,0,1,1.66,4.06c.44,3.07-.62,6.21-2.7,7.23a2.87,2.87,0,0,1-2.48,0C267.45,170.92,267.31,170.6,267.36,170.56Z" style="fill:#eb996e"></path><path d="M241.31,111.82h0l-.29,0Z" style="fill:#263238"></path><path d="M264.73,126.9c-1.19-3.71-.58-7.81-2.43-11.23s-5.67-7.58-9.37-8.79a26,26,0,0,0-7.84-1.46s0,.18-.08-.18c-1.27-6.32-14.24-13.51-18.22-14.49-12.66-3.15-17.66,3.06-29.95,7.44s-24.42,13.25-26.14,26.19a9.26,9.26,0,0,0,6,1.15c-3.41,7.86-4,16.81-2.74,25.3,1.41,9.29,5,18.12,9.09,26.56-2.33-4.48-1.45-10,.23-14.73s4.09-9.34,4.74-14.35c1-7.45-.33-13.11,2.08-20.22,2.5-7.36,11.42-9.49,11.42-9.49,5.48.09,10.05-4.07,14.41-7.38,3.79-2.88,8.88-3.6,13.6-3s5.39,2,9.78,3.85a14.36,14.36,0,0,1,4.28,5.94c0,2.21.47,3.57-.12,5.7-2.25,8.2,2.77,17,9.79,21.82s15.64,6.5,24,8.09A114.93,114.93,0,0,1,264.73,126.9Z" style="fill:#263238"></path><path d="M282.34,221.15q-4.72-17.78-9.44-35.53a47.07,47.07,0,0,0-3.36-9.71c-1.19-2.27-2.75-4.35-3.69-6.74-1.27-3.23-1.32-6.79-1.22-10.26s.35-7-.38-10.37-2.59-6.73-5.68-8.31l-10.52-.69c4.41,4.91,4.76,12.19,4.16,18.75s-1.92,13.33,0,19.64c2.43,8.1,9.83,14.25,11.21,22.6.72,4.4-.33,8.86-.93,13.28s-.65,9.23,1.78,13a6.09,6.09,0,0,0,3.8,2.88,8.18,8.18,0,0,0,4.14-.71l7.48-2.64a3.45,3.45,0,0,0,2.67-5.15Z" style="fill:#263238"></path><path d="M205.18,274.12l-.58.07a5,5,0,0,1-1.7-.26,7.34,7.34,0,0,1-4.43-4.64,9.84,9.84,0,0,1-.24-4.75,19,19,0,0,1,1.94-5.33c.94-1.81,2.14-3.63,3.25-5.63a18.83,18.83,0,0,0,2.42-6.74c.67-5-1.18-10.67-4.64-15.49s-8.58-8.87-13.73-13.22a66.55,66.55,0,0,1-7.47-7.21,29,29,0,0,1-5.61-9.28,27,27,0,0,1-1.18-11.16,66,66,0,0,1,2.31-11.33c1-3.76,2.13-7.44,2.9-11.14a39.18,39.18,0,0,0,.9-11c-.62-7.3-3.4-13.94-4.79-20.57a32.75,32.75,0,0,1-.82-9.85,24.19,24.19,0,0,1,2.51-9,33,33,0,0,1,4.86-7.24,33.33,33.33,0,0,1,5.94-5.41c4.17-3,8.89-4.46,13-4a12,12,0,0,1,5.31,2,13.28,13.28,0,0,1,3.44,3.3,10.47,10.47,0,0,1,1.65,3.42,10.62,10.62,0,0,1,.29,1.5c0,.47,0,.89,0,1.27s-.09.7-.12,1-.13.51-.18.7c-.11.37-.17.55-.17.55s0-.19.12-.57a5.31,5.31,0,0,0,.15-.69c0-.29.06-.62.1-1s0-.8-.05-1.25a10.24,10.24,0,0,0-2-4.82,12.73,12.73,0,0,0-3.41-3.21,11.77,11.77,0,0,0-5.2-1.88c-4-.45-8.65,1-12.75,4a33.37,33.37,0,0,0-5.85,5.38,32.6,32.6,0,0,0-4.77,7.16,23.86,23.86,0,0,0-2.45,8.83,32.59,32.59,0,0,0,.84,9.71c1.39,6.57,4.19,13.21,4.83,20.63a40,40,0,0,1-.9,11.19c-.77,3.73-1.88,7.43-2.9,11.18a64.84,64.84,0,0,0-2.3,11.24,26.41,26.41,0,0,0,1.15,10.94,28.39,28.39,0,0,0,5.49,9.13,66.73,66.73,0,0,0,7.42,7.17c5.12,4.35,10.23,8.39,13.76,13.33s5.37,10.63,4.66,15.78a17.15,17.15,0,0,1-1,3.65,26.51,26.51,0,0,1-1.55,3.21c-1.13,2-2.34,3.82-3.28,5.61a18.24,18.24,0,0,0-2,5.23,9.41,9.41,0,0,0,.19,4.64,7.24,7.24,0,0,0,4.27,4.61A5.4,5.4,0,0,0,205.18,274.12Z" style="fill:#455a64"></path><path d="M212.93,93.19a2.5,2.5,0,0,1,.9,0,8.1,8.1,0,0,1,2.35.67,9.37,9.37,0,0,1,3,2.1,8.87,8.87,0,0,1,2.29,8.34,9.51,9.51,0,0,1-1.5,3.33,8.06,8.06,0,0,1-1.68,1.77c-.47.35-.75.5-.77.47a15.42,15.42,0,0,0,2.15-2.45A9,9,0,0,0,216,94.2,16.11,16.11,0,0,0,212.93,93.19Z" style="fill:#455a64"></path><path d="M232.21,95.53a4.29,4.29,0,0,1,.89,1.71,9.38,9.38,0,0,1,.24,4.65,9.21,9.21,0,0,1-2,4.2,4.31,4.31,0,0,1-1.47,1.24c-.06-.07.5-.55,1.19-1.47a10.42,10.42,0,0,0,1.78-4.07,10.3,10.3,0,0,0-.09-4.45C232.46,96.22,232.13,95.57,232.21,95.53Z" style="fill:#455a64"></path><path d="M280.33,229.22a12.91,12.91,0,0,0,1.43-.61,8,8,0,0,0,3.07-3.12,11.19,11.19,0,0,0,1.36-6.75,21.34,21.34,0,0,0-3.42-8.57c-1.81-2.95-4.23-5.94-6-9.66a17.21,17.21,0,0,1-1.75-6.12,18.67,18.67,0,0,1,.77-6.72c1.27-4.48,3.81-8.67,5.91-13.17a32.75,32.75,0,0,0,2.39-7.16,15.42,15.42,0,0,0-.24-7.63,12.74,12.74,0,0,0-4.46-6.14,37.18,37.18,0,0,0-6.5-3.85,63.11,63.11,0,0,1-6.49-3.54,17.55,17.55,0,0,1-5.08-5,21.82,21.82,0,0,1-2.69-6.2,53,53,0,0,1-1.27-6.23,59.59,59.59,0,0,0-2.3-11.08,15.37,15.37,0,0,0-5.17-7.53,12,12,0,0,0-6.51-2.31,8.05,8.05,0,0,0-4.26,1,5,5,0,0,0-1,.64,2.47,2.47,0,0,1-.33.23s.09-.1.29-.27a5.31,5.31,0,0,1,.94-.69,8.18,8.18,0,0,1,4.32-1.11,12.24,12.24,0,0,1,6.68,2.28,15.64,15.64,0,0,1,5.35,7.65,59.86,59.86,0,0,1,2.38,11.13c.65,4,1.44,8.4,3.93,12.23a16.91,16.91,0,0,0,5,4.82,60.68,60.68,0,0,0,6.44,3.49,37.35,37.35,0,0,1,6.59,3.91,13.14,13.14,0,0,1,4.63,6.38,15.78,15.78,0,0,1,.26,7.89,32.55,32.55,0,0,1-2.44,7.27c-2.12,4.55-4.65,8.69-5.91,13.09a18.28,18.28,0,0,0-.78,6.55,16.91,16.91,0,0,0,1.69,6c1.76,3.66,4.16,6.66,6,9.64a21.53,21.53,0,0,1,3.4,8.74A11.4,11.4,0,0,1,285,225.6a8,8,0,0,1-3.2,3.1,6.22,6.22,0,0,1-1.09.43A1.74,1.74,0,0,1,280.33,229.22Z" style="fill:#455a64"></path><path d="M275,225.17a3.18,3.18,0,0,1-1.3-.26,5.63,5.63,0,0,1-2.81-2.53,8,8,0,0,1-.95-2.6,13.27,13.27,0,0,1-.09-3.3c.1-1.17.31-2.42.51-3.73a35.66,35.66,0,0,0,.38-4.17,34.29,34.29,0,0,0-5.5-19.53,39.63,39.63,0,0,0-3.66-4.69,36.74,36.74,0,0,1-3.91-4.92,10.24,10.24,0,0,1-1.72-6.29,25,25,0,0,1,1.84-6.46,19.7,19.7,0,0,0,.91-3.18,11.67,11.67,0,0,0,.12-3.23,19.83,19.83,0,0,0-1.89-6.08c-.89-1.92-1.88-3.75-2.73-5.63a23.9,23.9,0,0,1-1.86-5.74,61.12,61.12,0,0,1-.66-11.09,44.59,44.59,0,0,0-.82-9.56,16.81,16.81,0,0,0-3.26-7.1,12.89,12.89,0,0,0-4.65-3.65,9.72,9.72,0,0,0-3.64-.88c-.86,0-1.32,0-1.32,0a6.17,6.17,0,0,1,1.32-.11,9.43,9.43,0,0,1,3.73.79,13.15,13.15,0,0,1,4.78,3.65,17,17,0,0,1,3.4,7.21,44.09,44.09,0,0,1,.89,9.64,61.77,61.77,0,0,0,.7,11c.64,3.85,2.76,7.4,4.58,11.25a20.1,20.1,0,0,1,1.94,6.24,11.92,11.92,0,0,1-.11,3.37,21.35,21.35,0,0,1-.94,3.26,24.94,24.94,0,0,0-1.82,6.33,9.72,9.72,0,0,0,1.64,6,38.07,38.07,0,0,0,3.85,4.86,39.2,39.2,0,0,1,3.69,4.76,34.46,34.46,0,0,1,5.47,19.81,38,38,0,0,1-.42,4.2c-.22,1.32-.44,2.55-.55,3.71a13.82,13.82,0,0,0,0,3.23,7.77,7.77,0,0,0,.89,2.54,5.7,5.7,0,0,0,2.67,2.54A7.85,7.85,0,0,0,275,225.17Z" style="fill:#455a64"></path><path d="M230.26,188.86a6.21,6.21,0,0,0-6.77-3.65c-2.1.42-3.86,1.94-6,2.34l-.17,1.07,2.28,6.83a3.38,3.38,0,0,0,1.19,2,3.44,3.44,0,0,0,2.35.2,12.16,12.16,0,0,0,4.73-1.42A6.2,6.2,0,0,0,230.26,188.86Z" style="fill:#eb996e"></path><path d="M221.53,198c0-.07.38-.22,1.12-.46a30.44,30.44,0,0,0,3-1.08,8.75,8.75,0,0,0,3.64-2.73,5.41,5.41,0,0,0,1-2.38,4.5,4.5,0,0,0-.45-2.67,5.36,5.36,0,0,0-4.29-2.94,7.6,7.6,0,0,0-4.42.94,10.27,10.27,0,0,1-3.13,1.13c-.81.09-1.24-.08-1.23-.14s.44-.06,1.15-.26a12.63,12.63,0,0,0,2.87-1.39,8,8,0,0,1,4.86-1.23,6.47,6.47,0,0,1,2.91,1,6.09,6.09,0,0,1,2.21,2.47,5.48,5.48,0,0,1,.53,3.29,6.16,6.16,0,0,1-1.27,2.8,9,9,0,0,1-4.13,2.84,18.5,18.5,0,0,1-3.22.79C222,198.05,221.54,198.07,221.53,198Z" style="fill:#263238"></path><path d="M219.69,235.76c.41,1.14,10.81,28.74,31,25.33s26.54-37.91,26.54-37.91l30.72,25.61L285.83,468.17H211.27L196.35,326.28Z" style="fill:#455a64"></path><path d="M207.09,238.73s-35.87,7.74-41,14.06c-4.14,5.07-33.91,56.61-33.91,56.61l-13.48,31.27s-10.05,5.74-11.77,12.63-.57,24.1,4.31,30.13c0,0,3.15,20.65,16.06,21.51s24.72-4.7,33.29-12.33c7.57-6.75,20.45-52.75,19.79-55.09Z" style="fill:#BFA5E0"></path><path d="M181.4,245.67l-2.3,86.11V468.17h40.73l2.06-131.81s9-74.3,7.82-80.9-9.05-32.37-9.05-32.37l-13.57,15.64Z" style="fill:#BFA5E0"></path><g style="opacity:0.30000000000000004"><path d="M165.75,352.4a24.25,24.25,0,0,0-14.24-9.11c-1.38-.29-3.2-.25-3.75,1-.43,1,.22,2.15,1,3l1.76,2.12a32,32,0,0,1,9.73,19.6,17.27,17.27,0,0,0-6.35-19.08c5.56,1.12,9.8,5.49,13.67,9.65C168.53,357.21,167.29,354.48,165.75,352.4Z"></path></g><g style="opacity:0.30000000000000004"><path d="M179.28,287.59a96.85,96.85,0,0,0,.53,54.36C179.76,324.45,180.85,305,179.28,287.59Z"></path></g><path d="M169.68,361.55c-.08.05-.68-1-1.86-2.54a26.68,26.68,0,0,0-12-8.84c-1.82-.67-3-.93-3-1a2.84,2.84,0,0,1,.85.1,15.08,15.08,0,0,1,2.26.57,23.87,23.87,0,0,1,12.19,9,18.42,18.42,0,0,1,1.22,2A2.86,2.86,0,0,1,169.68,361.55Z" style="fill:#263238"></path><path d="M206.76,252.66a2.27,2.27,0,0,1-.47.15l-1.37.33-5,1.2-16.61,4c-6.49,1.54-12.38,2.9-16.66,3.81-2.14.46-3.87.81-5.07,1l-1.39.24a2.26,2.26,0,0,1-.49.05,1.7,1.7,0,0,1,.47-.16l1.36-.33,5-1.19,16.62-4c6.49-1.54,12.37-2.9,16.65-3.81,2.14-.46,3.87-.81,5.08-1l1.39-.24A1.63,1.63,0,0,1,206.76,252.66Z" style="fill:#fff"></path><path d="M221.06,230.32a24.09,24.09,0,0,1-2.21,2.12c-1.38,1.29-3.24,3.12-5.15,5.27s-3.49,4.23-4.59,5.76a24.1,24.1,0,0,1-1.83,2.46,14.52,14.52,0,0,1,1.52-2.67,52.53,52.53,0,0,1,4.51-5.89,51.18,51.18,0,0,1,5.29-5.2A14.2,14.2,0,0,1,221.06,230.32Z" style="fill:#fff"></path><path d="M227.49,247.09a34.23,34.23,0,0,1-2.63,2.38c-1.64,1.44-3.85,3.5-6.14,5.91s-4.23,4.73-5.59,6.44-2.17,2.79-2.23,2.75a3.14,3.14,0,0,1,.46-.84c.33-.52.83-1.25,1.48-2.13a66.42,66.42,0,0,1,5.5-6.58,68.4,68.4,0,0,1,6.28-5.83c.85-.7,1.56-1.24,2.06-1.59A3.6,3.6,0,0,1,227.49,247.09Z" style="fill:#fff"></path><path d="M225.67,293.08c0,.14-10.31.84-23,1.56s-23,1.19-23.06,1,10.3-.84,23-1.56S225.66,292.94,225.67,293.08Z" style="fill:#fff"></path><path d="M219.93,335.12a7.93,7.93,0,0,1-1.55.25c-1,.14-2.46.29-4.25.46-3.6.32-8.57.63-14.08.71s-10.5-.1-14.1-.33c-1.8-.12-3.25-.23-4.26-.34a8.42,8.42,0,0,1-1.55-.21,8.59,8.59,0,0,1,1.57,0l4.26.17c3.6.14,8.58.25,14.07.18s10.46-.33,14.06-.56l4.26-.29A10.93,10.93,0,0,1,219.93,335.12Z" style="fill:#fff"></path><path d="M220.78,383.62a12,12,0,0,1-1.65.06l-4.49,0c-3.79,0-9,.18-14.79.55s-11,.92-14.75,1.37l-4.46.55a10.9,10.9,0,0,1-1.64.15,9.11,9.11,0,0,1,1.61-.35c1-.2,2.56-.44,4.44-.71,3.76-.55,9-1.15,14.76-1.53s11-.45,14.83-.4c1.9,0,3.44.07,4.5.13A8.67,8.67,0,0,1,220.78,383.62Z" style="fill:#fff"></path><path d="M220.42,446.73a12.08,12.08,0,0,1-1.59.54c-.51.17-1.14.35-1.89.52s-1.59.41-2.54.58a55.15,55.15,0,0,1-6.72.91,56.77,56.77,0,0,1-16.51-1.21,54.28,54.28,0,0,1-6.52-1.88c-.91-.3-1.71-.65-2.43-.93s-1.31-.56-1.79-.8a11.56,11.56,0,0,1-1.49-.76,8.71,8.71,0,0,1,1.57.58c.49.21,1.1.46,1.82.71s1.52.58,2.44.86a62.9,62.9,0,0,0,6.5,1.75,64.69,64.69,0,0,0,8.15,1.16,66.76,66.76,0,0,0,8.23,0,61.27,61.27,0,0,0,6.68-.79c.95-.14,1.79-.35,2.54-.5s1.39-.3,1.91-.43A9,9,0,0,1,220.42,446.73Z" style="fill:#fff"></path><path d="M157.89,365.06a3.51,3.51,0,0,1,.12.75c0,.25.08.56.1.93s0,.8,0,1.27a20.21,20.21,0,0,1-1.76,7.88,22.73,22.73,0,0,1-7.56,9.23,24.39,24.39,0,0,1-13.93,4.28,28.48,28.48,0,0,1-14.15-3.69,33.55,33.55,0,0,1-9.17-7.7,37.82,37.82,0,0,1-4.47-6.73c-.43-.86-.75-1.53-.94-2a4.7,4.7,0,0,1-.28-.72,4.47,4.47,0,0,1,.38.67c.22.45.56,1.11,1,1.94a40,40,0,0,0,4.57,6.59A34,34,0,0,0,121,385.3a28.31,28.31,0,0,0,13.91,3.58,24.08,24.08,0,0,0,13.66-4.15,22.68,22.68,0,0,0,7.5-9,20.56,20.56,0,0,0,1.9-7.72l0-1.27c0-.36,0-.67-.05-.92A4,4,0,0,1,157.89,365.06Z" style="fill:#fff"></path><path d="M148.43,400.18a5.41,5.41,0,0,1-1.12.54,10.59,10.59,0,0,1-1.35.53c-.53.19-1.14.42-1.83.6a34,34,0,0,1-4.9,1.07,39.68,39.68,0,0,1-6.13.34,38.59,38.59,0,0,1-6.1-.7,35.86,35.86,0,0,1-4.83-1.34c-.68-.22-1.27-.49-1.79-.71a12.2,12.2,0,0,1-1.32-.61,5.91,5.91,0,0,1-1.08-.6c0-.09,1.62.69,4.31,1.57a41.09,41.09,0,0,0,4.8,1.22,41.88,41.88,0,0,0,6,.65,43,43,0,0,0,6-.3,39.13,39.13,0,0,0,4.87-.94C146.77,400.78,148.39,400.09,148.43,400.18Z" style="fill:#fff"></path><path d="M169.2,376.29c-.11,0-.16-1.67-.69-4.32a33.29,33.29,0,0,0-1.25-4.56,38.07,38.07,0,0,0-2.38-5.27,36.33,36.33,0,0,0-3.24-4.79,33,33,0,0,0-3.23-3.46c-2-1.84-3.38-2.77-3.32-2.85a5.34,5.34,0,0,1,1,.61,12.5,12.5,0,0,1,1.13.8c.42.34.92.7,1.42,1.17A30.46,30.46,0,0,1,162,357a35.63,35.63,0,0,1,3.33,4.84,34.63,34.63,0,0,1,2.37,5.37,31.9,31.9,0,0,1,1.17,4.65c.13.67.17,1.29.24,1.83a10.55,10.55,0,0,1,.09,1.38A5.38,5.38,0,0,1,169.2,376.29Z" style="fill:#fff"></path><path d="M178.75,333.32a30.41,30.41,0,0,0-5.71-3.94,30.28,30.28,0,0,0-6.64-2.05,6,6,0,0,1,2.08.08,16.83,16.83,0,0,1,4.79,1.5,16.46,16.46,0,0,1,4.13,2.83A5.68,5.68,0,0,1,178.75,333.32Z" style="fill:#fff"></path><path d="M179.13,299.55a7.09,7.09,0,0,1-1.23-.62l-3.29-1.83c-2.77-1.55-6.62-3.65-10.92-5.86s-8.27-4.1-11.14-5.44l-3.4-1.6a7.26,7.26,0,0,1-1.23-.64,7.27,7.27,0,0,1,1.31.46c.83.32,2,.81,3.47,1.44,2.92,1.26,6.91,3.11,11.22,5.32s8.15,4.37,10.88,6c1.36.81,2.46,1.49,3.2,2A7.06,7.06,0,0,1,179.13,299.55Z" style="fill:#fff"></path><path d="M159.5,373.93c-.1,0,.08-1.63-.07-4.25a32.13,32.13,0,0,0-.59-4.55,34.31,34.31,0,0,0-1.6-5.38,35.19,35.19,0,0,0-2.5-5,31.93,31.93,0,0,0-2.67-3.73c-1.67-2-2.91-3.09-2.84-3.16a4.68,4.68,0,0,1,.9.7,11,11,0,0,1,1,.92c.37.38.81.79,1.23,1.3a28.5,28.5,0,0,1,2.8,3.72,32.67,32.67,0,0,1,2.58,5.09,33.11,33.11,0,0,1,1.58,5.48,29.13,29.13,0,0,1,.49,4.63c0,.66,0,1.26,0,1.78s-.06,1-.1,1.35A4.59,4.59,0,0,1,159.5,373.93Z" style="fill:#263238"></path><path d="M158.06,380.35a2,2,0,0,1-.3.38c-.22.23-.52.58-1,1a31.7,31.7,0,0,1-3.91,3.24,33.25,33.25,0,0,1-32.07,3.46,29.29,29.29,0,0,1-4.52-2.33c-.52-.31-.89-.59-1.15-.77a1.51,1.51,0,0,1-.37-.3,15.84,15.84,0,0,1,1.62.9,36.56,36.56,0,0,0,4.55,2.16,34,34,0,0,0,31.73-3.43,37.29,37.29,0,0,0,4-3.08A15.94,15.94,0,0,1,158.06,380.35Z" style="fill:#263238"></path><path d="M179.1,287.37a1.11,1.11,0,0,1,0,.26c0,.2,0,.45,0,.75,0,.71.08,1.68.14,2.92.12,2.52.23,6.19.35,10.71.22,9.05.27,21.56,0,35.37s-.48,26.31-.54,35.36c0,4.49,0,8.14-.07,10.72q0,1.85,0,2.91c0,.31,0,.56,0,.76a1.33,1.33,0,0,1,0,.26.9.9,0,0,1,0-.26c0-.2,0-.45,0-.76,0-.71,0-1.68-.07-2.91-.06-2.53-.09-6.2-.1-10.72,0-9.05.16-21.56.39-35.37s.23-26.31.11-35.35c-.07-4.5-.14-8.15-.18-10.72,0-1.23,0-2.21,0-2.91v-.76A1.33,1.33,0,0,1,179.1,287.37Z" style="fill:#263238"></path><g style="opacity:0.30000000000000004"><path d="M215.22,276l2.07,5.52c.26.71.77,1.57,1.52,1.43.46-.09.75-.55,1-1a80.22,80.22,0,0,0,8.06-21.71,5.46,5.46,0,0,0,.15-2.44,2,2,0,0,0-1.65-1.63c-1.17-.1-2.87,2.45-3.38,3.51-3,6.28-4.94,9.89-7.74,16.28"></path></g><path d="M228.15,255.54a5.64,5.64,0,0,0-2.07.75,11.05,11.05,0,0,0-3.67,4.79l-8.77,19.07-.34.74-.14-.8c-.39-2.14-.8-4.36-1.21-6.63-1.75-9.81-3.33-18.69-4.49-25.18-.54-3.18-1-5.78-1.3-7.64-.14-.86-.25-1.56-.33-2.08a3.65,3.65,0,0,1-.08-.73,3.66,3.66,0,0,1,.19.71c.1.52.24,1.21.42,2.06.36,1.86.85,4.44,1.46,7.61,1.2,6.49,2.84,15.36,4.64,25.16.41,2.27.81,4.49,1.2,6.63l-.48-.06c3.54-7.6,6.65-14.26,8.93-19a11,11,0,0,1,3.88-4.8,5,5,0,0,1,1.58-.57A2.32,2.32,0,0,1,228.15,255.54Z" style="fill:#263238"></path><g style="opacity:0.30000000000000004"><path d="M133.94,390.66a36.56,36.56,0,0,1-18.2-4.39,16.89,16.89,0,0,0,10.62,8.46,22.65,22.65,0,0,0,14.75-1.27,35.52,35.52,0,0,0,12.06-8.89A36.62,36.62,0,0,1,133.94,390.66Z"></path></g><path d="M276.2,387.73l4.51,80.79,61.31-.35s-7.88-89.4-7.88-90.26c0-.53,3.74-100.4,3.74-100.4-1-20.78,2.25-39.51-1.05-40.63-6.52-2.2-36.71-.87-36.71-.87l-22.37-21.54-2.24,5.15,3.73,19.24-.87,55.34C278.3,293.29,276.2,387.73,276.2,387.73Z" style="fill:#BFA5E0"></path><path d="M335.49,236.51s14.08,4.33,22.28,28.06c4.91,14.2,17.12,84.85,17.12,84.85l37.37,14.3s-10.76,35.84-24.6,40.06l-23.07-11.19s-16,2-21.52-5.81a90.17,90.17,0,0,1-9.2-17.56l-10.24-81.73Z" style="fill:#BFA5E0"></path><g style="opacity:0.30000000000000004"><path d="M300.55,269.26a32.7,32.7,0,0,1,.17-15.7A32.13,32.13,0,0,0,298,273.68a19.69,19.69,0,0,1-8.22-13c-.22-1.41-.35-3-1.38-4-.79-.77-2.3-1.34-3.08-.55a5.37,5.37,0,0,0-1.69,2.63c-1.47,3.69-2.21,7.82-1,11.6.55,1.7,1.55,3.47,3.26,4,1.35.4,2.81-.1,4.21.07,1.63.2,3,1.26,4.4,2.1s3.16,1.49,4.65.81a4.17,4.17,0,0,0,2.13-3.68A16.6,16.6,0,0,0,300.55,269.26Z"></path></g><path d="M282.82,260a2.5,2.5,0,0,1,.15-.54,9.37,9.37,0,0,1,.64-1.5,5.34,5.34,0,0,1,1.71-2,2.57,2.57,0,0,1,3.31.53,8.2,8.2,0,0,1,1.43,4,19.53,19.53,0,0,0,8.13,13.27l-.4.28a20,20,0,0,1-.69-6c.2-4.85,1.63-9.24,2.69-13.22a40.29,40.29,0,0,0,1.76-10.77,17.52,17.52,0,0,0-1.36-7.17c-.73-1.58-1.35-2.34-1.29-2.38a10.07,10.07,0,0,1,1.47,2.29,17.11,17.11,0,0,1,1.55,7.26A39.7,39.7,0,0,1,300.25,255c-1,4-2.44,8.37-2.63,13.12a19.57,19.57,0,0,0,.67,5.87l.19.69-.59-.41a19.84,19.84,0,0,1-7-8.88,20.12,20.12,0,0,1-1.23-4.74,7.89,7.89,0,0,0-1.29-3.84,2.26,2.26,0,0,0-2.91-.52,5.13,5.13,0,0,0-1.69,1.83C283.08,259.29,282.87,260,282.82,260Z" style="fill:#263238"></path><g style="opacity:0.30000000000000004"><path d="M309,355.1,286,346.44l-.15.23a95.9,95.9,0,0,0,19.69,13.05c2.18,1.08,4.77,2.09,7,1a7.86,7.86,0,0,0,2.77-2.7,59.84,59.84,0,0,0,8.1-15.93C319.05,347.14,309,355.1,309,355.1Z"></path></g><path d="M285.21,300.1l.69,0L288,300l7.89-.3,28.54-1h.22v.22c0,12.36,0,27.11,0,43v.12l-.09.07-3.7,3.17-11.69,10-.11.09-.14-.05-23.8-8.6-.15-.05v-.17c0-13.83,0-25.43,0-33.6,0-4.05.07-7.25.09-9.46,0-1.08,0-1.91.06-2.5,0-.28,0-.51,0-.65s0-.21,0-.21c0,2,.1,19,.23,46.42l-.15-.21,23.81,8.55-.25.05,11.68-10,3.7-3.17-.09.2c0-15.91,0-30.66.05-43l.22.22-28.42.76-7.95.18-2.09,0Z" style="fill:#263238"></path><path d="M338.17,273.12a.77.77,0,0,1,0,.28c0,.2,0,.47,0,.79,0,.74-.09,1.76-.16,3.05-.15,2.69-.36,6.52-.62,11.22-.52,9.48-1.18,22.57-1.74,37s-.9,27.58-1.11,37.07c-.1,4.71-.19,8.54-.24,11.23q-.06,1.95-.09,3.06c0,.32,0,.58,0,.79a.94.94,0,0,1,0,.27.8.8,0,0,1,0-.27c0-.21,0-.47,0-.8,0-.73,0-1.75,0-3,0-2.65,0-6.49.08-11.24.12-9.49.4-22.6,1-37.08s1.28-27.56,1.89-37c.31-4.73.58-8.57.79-11.21.11-1.29.19-2.31.25-3.05,0-.32.06-.58.08-.79A1.14,1.14,0,0,1,338.17,273.12Z" style="fill:#263238"></path><path d="M340.52,365.06a7.58,7.58,0,0,1,1-1.16c.33-.37.75-.8,1.26-1.28s1.08-1.05,1.76-1.6a47.12,47.12,0,0,1,4.94-3.74A48.64,48.64,0,0,1,363.27,351a47.2,47.2,0,0,1,6.07-1.26c.87-.15,1.66-.2,2.36-.27s1.3-.1,1.79-.11a10.58,10.58,0,0,1,1.53,0,7.53,7.53,0,0,1-1.51.2c-.49,0-1.09.09-1.78.19s-1.48.17-2.34.34a52.28,52.28,0,0,0-19.64,7.56,52.28,52.28,0,0,0-5,3.62c-.7.53-1.27,1.08-1.8,1.53s-1,.87-1.32,1.21A8.85,8.85,0,0,1,340.52,365.06Z" style="fill:#263238"></path><path d="M364.59,392.59a3.5,3.5,0,0,1-.1-.57c0-.37-.14-.92-.16-1.63a28.7,28.7,0,0,1,.29-6,30.28,30.28,0,0,1,26.88-25.62,28.37,28.37,0,0,1,6,0c.71.06,1.26.18,1.63.24a1.66,1.66,0,0,1,.55.13s-.78-.07-2.19-.17a31,31,0,0,0-6,.17,31.37,31.37,0,0,0-8.53,2.28A29.56,29.56,0,0,0,367.68,376a31.92,31.92,0,0,0-3.15,14.37C364.57,391.8,364.64,392.58,364.59,392.59Z" style="fill:#263238"></path><g style="opacity:0.30000000000000004"><path d="M356.24,348.34a22.73,22.73,0,0,0-12.68,13.21c9.74-5,19.61-10.1,30.29-12.57l.69,0A22.7,22.7,0,0,0,356.24,348.34Z"></path></g><g style="opacity:0.30000000000000004"><path d="M387.66,403.78c-3-8.17-3.26-17.74,1.22-25.21s13.47-12.33,22.07-10.91c-4.67,16.92-15.4,34.1-23.29,36.12"></path></g><path d="M299.93,252.68a4.23,4.23,0,0,1-.8-.68c-.49-.47-1.18-1.15-2-2-1.71-1.69-4-4.13-6.6-6.7a13.08,13.08,0,0,0-4.17-2.83,7,7,0,0,0-4-.32,5.27,5.27,0,0,0-2.43,1.26c-.47.47-.66.8-.7.77s0-.1.1-.26a3.88,3.88,0,0,1,.45-.65,5.07,5.07,0,0,1,2.49-1.47,7,7,0,0,1,4.29.22,13.14,13.14,0,0,1,4.36,2.9c2.63,2.61,4.85,5.06,6.5,6.82.82.89,1.48,1.61,1.92,2.11A3.89,3.89,0,0,1,299.93,252.68Z" style="fill:#fff"></path><path d="M283,220.49c0,.15-1.77.58-3.78,1.61s-3.42,2.21-3.52,2.09a8.3,8.3,0,0,1,3.29-2.56A8.43,8.43,0,0,1,283,220.49Z" style="fill:#fff"></path><path d="M337.57,290c0,.14-13.33,1.52-29.79,3.07S278,295.76,278,295.62s13.32-1.52,29.78-3.08S337.55,289.85,337.57,290Z" style="fill:#fff"></path><path d="M359.2,271.88c0,.14-4.78,1.53-10.75,3.1s-10.85,2.73-10.89,2.59,4.78-1.52,10.76-3.09S359.17,271.74,359.2,271.88Z" style="fill:#fff"></path><path d="M339.76,239.62a7.45,7.45,0,0,1-1.51.14l-4.14.23c-3.49.2-8.31.53-13.62,1.07s-10.09,1.19-13.55,1.7l-4.1.61a9.76,9.76,0,0,1-1.51.17,7.47,7.47,0,0,1,1.48-.37c.95-.21,2.35-.47,4.07-.77,3.45-.61,8.24-1.31,13.56-1.86s10.15-.81,13.65-.91c1.75-.06,3.17-.08,4.15-.07A10.11,10.11,0,0,1,339.76,239.62Z" style="fill:#fff"></path><path d="M295.69,350.48c-.14,0-.76-11.22-1.37-25.08s-1-25.1-.84-25.1.75,11.22,1.36,25.08S295.83,350.47,295.69,350.48Z" style="fill:#fff"></path><path d="M312.22,351.56a2.88,2.88,0,0,1-.1-.52c-.05-.4-.11-.9-.18-1.51-.15-1.31-.35-3.21-.56-5.55-.44-4.7-1-11.19-1.38-18.37s-.66-13.7-.77-18.41c-.06-2.36-.09-4.26-.09-5.58,0-.61,0-1.11,0-1.52a2,2,0,0,1,0-.53,2,2,0,0,1,.07.53c0,.4.05.9.08,1.51.07,1.4.15,3.28.26,5.58.2,4.71.51,11.21.92,18.39s.88,13.67,1.22,18.37c.17,2.29.3,4.17.4,5.56,0,.61.06,1.11.09,1.52A2,2,0,0,1,312.22,351.56Z" style="fill:#fff"></path><path d="M372.35,330.18a9.66,9.66,0,0,1-1.52.08c-1,0-2.39.06-4.12.19s-3.81.35-6.08.72a71.57,71.57,0,0,0-7.3,1.64,70.63,70.63,0,0,0-7.07,2.47c-2.12.89-4,1.78-5.54,2.6s-2.77,1.51-3.6,2a9,9,0,0,1-1.34.74,9.79,9.79,0,0,1,1.23-.91c.8-.56,2-1.31,3.53-2.17a57.33,57.33,0,0,1,5.53-2.72,64.35,64.35,0,0,1,7.11-2.53,65.57,65.57,0,0,1,7.37-1.62,58.8,58.8,0,0,1,6.13-.61c1.76-.08,3.18-.08,4.15,0A8.14,8.14,0,0,1,372.35,330.18Z" style="fill:#fff"></path><path d="M334.3,384a2.79,2.79,0,0,1-.61.1l-1.74.17c-1.52.14-3.72.29-6.44.44-5.44.3-13,.49-21.29.26s-15.83-.85-21.24-1.45c-2.71-.3-4.9-.58-6.41-.81l-1.73-.26a2.67,2.67,0,0,1-.6-.13,2.56,2.56,0,0,1,.61,0l1.75.17,6.41.64c5.42.51,12.92,1.06,21.22,1.3s15.82.1,21.26-.11l6.44-.28,1.76-.07A2.59,2.59,0,0,1,334.3,384Z" style="fill:#fff"></path><path d="M341,441.09a2.33,2.33,0,0,1-.62.14l-1.79.3c-1.56.25-3.83.57-6.64.91-5.61.69-13.4,1.4-22,1.68s-16.45.08-22.1-.25c-2.82-.16-5.1-.33-6.67-.48l-1.82-.19a2.11,2.11,0,0,1-.62-.1,5,5,0,0,1,.63,0l1.82.08c1.58.1,3.86.21,6.68.32,5.64.23,13.45.38,22.06.1s16.39-.93,22-1.52c2.81-.3,5.08-.56,6.65-.75l1.81-.2A3,3,0,0,1,341,441.09Z" style="fill:#fff"></path><path d="M385.4,354.28a1.92,1.92,0,0,1-.51.2l-1.48.45-1.06.31c-.39.13-.8.3-1.24.47a29.35,29.35,0,0,0-3,1.21l-1.69.79c-.59.28-1.17.64-1.79,1-1.24.65-2.47,1.51-3.79,2.37a50.17,50.17,0,0,0-7.7,6.75,50.72,50.72,0,0,0-6,8.27c-.74,1.39-1.48,2.69-2,4-.28.65-.59,1.25-.81,1.86l-.64,1.77a30.18,30.18,0,0,0-.94,3.07c-.13.46-.26.89-.35,1.28s-.15.76-.22,1.09c-.13.61-.23,1.11-.32,1.51a2.08,2.08,0,0,1-.15.52,2.76,2.76,0,0,1,.05-.54c.06-.4.13-.91.22-1.53.05-.34.11-.7.18-1.1s.19-.83.31-1.3a29.82,29.82,0,0,1,.87-3.12c.2-.57.4-1.17.61-1.79s.52-1.24.79-1.89a43.32,43.32,0,0,1,2-4.06,45,45,0,0,1,13.87-15.17,40.47,40.47,0,0,1,3.87-2.35c.62-.33,1.21-.69,1.81-1l1.73-.77a30.71,30.71,0,0,1,3-1.15c.45-.15.87-.31,1.26-.42l1.09-.27,1.5-.36A2.92,2.92,0,0,1,385.4,354.28Z" style="fill:#fff"></path><path d="M389,377.26a24.2,24.2,0,0,1-1.53-2.14,28.51,28.51,0,0,0-4.26-4.64,28,28,0,0,0-5.2-3.56,25.52,25.52,0,0,1-2.34-1.22,9.23,9.23,0,0,1,2.5.89,23.21,23.21,0,0,1,9.6,8.32A9.35,9.35,0,0,1,389,377.26Z" style="fill:#fff"></path><path d="M395.28,396.1s-9.45-4.44-9.44-9.13c0-2.63,1.85-7,5.13-11.32a21.76,21.76,0,0,1,10.61-7.2l9.24.06s-.14-.73,2.47-6.39,7.26-7.56,9.59-14.24a87.7,87.7,0,0,0,3.77-13.29c1-4.71,2.62-8.64,6-7.33s3.63,5.37,2.76,10-4.22,12.49-1.46,16.41,3.63,4.51,10.46,4.65,23.82-2,23.82-2,5.66-1,6.39,1.89-8.86,5.81-8.86,5.81,12.2-4.36,12.34,1.88l-.72,2.33-15.4,5.66s7.7-1.6,9.3-.58,2.76,3.49,1.45,5.08-15.1,3.49-15.1,3.49l-11.33.29s-.44,1.16,2.47,1.31,11-.29,10.16,3-8.71,3.05-8.71,3.05-11.47-.58-14.23.29a146.5,146.5,0,0,1-16.12,3.92C415.61,394.36,395.28,396.1,395.28,396.1Z" style="fill:#ffbe9d"></path><path d="M408.62,387.93s-.23-.2-.54-.62a10.07,10.07,0,0,1-1-2,10.83,10.83,0,0,1-.12-7.31,18.14,18.14,0,0,1,1.9-3.6,13.38,13.38,0,0,0,1.45-2.88,7.19,7.19,0,0,0,.33-2.92,4.18,4.18,0,0,1,0,3,12.67,12.67,0,0,1-1.39,3,19.73,19.73,0,0,0-1.82,3.52,11.08,11.08,0,0,0,0,7A25.69,25.69,0,0,0,408.62,387.93Z" style="fill:#eb996e"></path><path d="M434.16,357.28a6,6,0,0,1,.54,2.08,14.5,14.5,0,0,1-.23,5.19,15,15,0,0,1-2,4.79,5.92,5.92,0,0,1-1.38,1.64,18.58,18.58,0,0,0,3.09-13.7Z" style="fill:#eb996e"></path><path d="M470.15,363.07c0,.14-4.81,1.23-10.81,2.43s-10.9,2.06-10.93,1.92,4.82-1.23,10.82-2.43S470.13,362.92,470.15,363.07Z" style="fill:#eb996e"></path><path d="M463,374a10.76,10.76,0,0,1-2.53.52,55.48,55.48,0,0,1-6.23.54,53.7,53.7,0,0,1-6.25-.15,10.93,10.93,0,0,1-2.57-.36,14.77,14.77,0,0,1,2.59,0c1.59,0,3.79.07,6.21,0s4.62-.24,6.2-.38A14.43,14.43,0,0,1,463,374Z" style="fill:#eb996e"></path><path d="M220.47,126.62a11.75,11.75,0,0,0,1.75-.32,4.23,4.23,0,0,0,2.07-6.75c-.66-.87-1.32-1.16-1.27-1.24a2.62,2.62,0,0,1,1.55,1,4.43,4.43,0,0,1-2.25,7.34A2.6,2.6,0,0,1,220.47,126.62Z" style="fill:#263238"></path><path d="M235.82,119.2a3.21,3.21,0,0,1-1.59.71,6.84,6.84,0,0,1-4.2-.39,6.76,6.76,0,0,1-3.14-2.81,3.34,3.34,0,0,1-.58-1.65c.09,0,.3.6.89,1.45a7,7,0,0,0,7,3C235.19,119.4,235.79,119.12,235.82,119.2Z" style="fill:#263238"></path><path d="M231.14,130.23c-.08,0-.21-.49-.64-1.18a4.85,4.85,0,0,0-2.37-2,5,5,0,0,0-3.07,0c-.77.25-1.2.56-1.25.49s.32-.47,1.12-.83a4.52,4.52,0,0,1,5.89,2.15C231.21,129.66,231.2,130.22,231.14,130.23Z" style="fill:#263238"></path><path d="M234.87,127.27s-.58.06-1.32-.47a3.31,3.31,0,0,1,.64-5.78c.83-.35,1.4-.22,1.39-.16s-.53.1-1.23.49a3.11,3.11,0,0,0-.57,5.17C234.38,127.06,234.9,127.19,234.87,127.27Z" style="fill:#263238"></path><path d="M111.76,267.68a4.65,4.65,0,0,0-2.29,2.85,4.33,4.33,0,0,0,.31,2.81l13.58,30.2,8.82,17.76,26.1-6.3-16.86-42.07s-1.38-5.83-6.71-5.83H114A4.52,4.52,0,0,0,111.76,267.68Z" style="fill:#455a64"></path><path d="M117.66,275.3h-3.39a1.35,1.35,0,0,1-1.2-.73h0a1.36,1.36,0,0,1,1.2-2h3.39a1.36,1.36,0,0,1,1.25.8h0A1.37,1.37,0,0,1,117.66,275.3Z" style="fill:#fff"></path><path d="M115.09,284.68a9,9,0,0,0-1.68,6.47c.56,3.65.79,8.15.79,8.15s2.58,2.53,2.86,9.56-.56,11.25,1.13,14.63-2.44,23.34-2.44,23.34-3.37,3.09-2.43,5.06-.2,16.31,6.83,22.77l14.91,4.22s6.47-.56,8.43-6.18,0-23.34,0-23.34,6.6-3,9.49-8.27c0,0,10.56-7.39,13-9.31s3.94-9.84,3.66-11.31-4.7-1.82-4.7-1.82,2.28-6.52-2.11-9.86c0,0,1.24-5.44-1.52-6.68a4.6,4.6,0,0,0-4.77.48s-5,5.25-8.49,6.68-10.87,7.53-12.78,6.39-3-1.82-1.91-4.87,4.12-11.41,6-12.72,5-4.88,4.2-6.95-2.78-4.74-5.45-3.31-10.87,9.44-13.45,14l-1.33,1.71Z" style="fill:#ffbe9d"></path><path d="M162.77,308.37s0,.09,0,.27a3.83,3.83,0,0,1-.05.76,6.23,6.23,0,0,1-1.07,2.6,13,13,0,0,1-2.94,2.95,46.31,46.31,0,0,1-4.23,2.78,57.85,57.85,0,0,1-8.22,4.06c-1.1.44-2,.75-2.62.95a4.15,4.15,0,0,1-1,.26c0-.08,1.33-.6,3.46-1.55a75.89,75.89,0,0,0,8.11-4.17c3.05-1.81,5.79-3.6,7.13-5.49A7.53,7.53,0,0,0,162.77,308.37Z" style="fill:#eb996e"></path><path d="M164.73,318.85a11,11,0,0,1-1.82,2.24,30.34,30.34,0,0,1-11.67,7.56,11,11,0,0,1-2.8.75,24.86,24.86,0,0,1,2.66-1.09,39.49,39.49,0,0,0,6.12-3.2,38.52,38.52,0,0,0,5.43-4.28A25.21,25.21,0,0,1,164.73,318.85Z" style="fill:#eb996e"></path><path d="M122.13,319a3.28,3.28,0,0,1-1.24-2.05,14.72,14.72,0,0,1,.14-5.76,44.83,44.83,0,0,1,1.24-5.61,9,9,0,0,1,.81-2.24,13.19,13.19,0,0,1-.46,2.33c-.32,1.43-.73,3.4-1.08,5.6a16.88,16.88,0,0,0-.29,5.6A7.77,7.77,0,0,0,122.13,319Z" style="fill:#eb996e"></path><path d="M132.57,327.75c0,.07-.33.13-.84,0a2.84,2.84,0,0,1-1.58-1.26,2.88,2.88,0,0,1-.34-2c.11-.52.32-.78.38-.75a4.87,4.87,0,0,0,.41,2.48C131.32,327.41,132.61,327.62,132.57,327.75Z" style="fill:#eb996e"></path><path d="M141.28,335.64c0,.06-.39.18-1.05.1a3.88,3.88,0,0,1-2.26-1.19,3.93,3.93,0,0,1-1-2.34c0-.67.11-1,.18-1s.06.4.19,1a4.37,4.37,0,0,0,1,2,4.5,4.5,0,0,0,2,1.18C140.89,335.55,141.28,335.56,141.28,335.64Z" style="fill:#eb996e"></path><path d="M148.88,340.32c0,.06-.33.13-.85,0a3.32,3.32,0,0,1-2.33-3.12c0-.53.16-.83.22-.82a5.87,5.87,0,0,0,.86,2.44A5.79,5.79,0,0,0,148.88,340.32Z" style="fill:#eb996e"></path><path d="M143.4,350a6.81,6.81,0,0,1-1.81.78A33,33,0,0,1,137,352a32.13,32.13,0,0,1-4.72.51,6.3,6.3,0,0,1-2-.09c0-.15,3-.27,6.59-.93S143.34,349.86,143.4,350Z" style="fill:#eb996e"></path><path d="M151.52,307.6a3.63,3.63,0,0,1-.28-.63l-.7-1.82c-.61-1.65-1.45-3.94-2.49-6.74l-8-22.3c-.8-2.12-1.82-4.24-3.63-5.35s-4-1.08-6-1.06l-10.65.12-7.19,0-1.95,0a3.22,3.22,0,0,1-.68,0,3.28,3.28,0,0,1,.68-.07l1.95-.08,7.18-.2,10.65-.23a21.75,21.75,0,0,1,3.11.09,7.43,7.43,0,0,1,3.14,1c2,1.23,3,3.46,3.84,5.61,3.12,8.72,5.89,16.62,7.88,22.36l2.33,6.79.61,1.86A3.28,3.28,0,0,1,151.52,307.6Z" style="fill:#263238"></path></g><g id="freepik--Table--inject-201"><path d="M448.22,468.17c0,.14-90.09.26-201.21.26s-201.23-.12-201.23-.26,90.08-.26,201.23-.26S448.22,468,448.22,468.17Z" style="fill:#263238"></path></g></svg>
