<svg xmlns="http://www.w3.org/2000/svg" viewBox="0 0 500 500"><g id="freepik--Background--inject-625"><path id="freepik--background--inject-625" d="M456.36,359.35c0-129.58-53.48-308.08-206.36-308.08S43.64,229.77,43.64,359.35h0c0,30.51,20.12,61,60.44,84.31,80.59,46.53,211.25,46.53,291.84,0,40.32-23.28,60.47-53.8,60.44-84.31Z" style="fill:#37474f"></path></g><g id="freepik--Plants--inject-625"><g id="freepik--plants--inject-625"><g id="freepik--Flower--inject-625"><path d="M61.1,382.48a.27.27,0,0,1-.1-.06.37.37,0,0,1,0-.52c9.95-10.67,12.06-26.54,5.5-41.42a.38.38,0,0,1,.19-.49.37.37,0,0,1,.49.19c6.68,15.15,4.52,31.33-5.64,42.22A.37.37,0,0,1,61.1,382.48Z"></path><path d="M70.22,362.48a.37.37,0,0,1-.15-.13c-2.23-3.25-5.11-4.46-7.9-5.62a17.73,17.73,0,0,1-4.54-2.43,4.89,4.89,0,0,1-1.29-5.84c.48-.9,2-2.88,6-1.75,6.36,1.79,8.79,10.88,8.38,15.46a.36.36,0,0,1-.27.33A.42.42,0,0,1,70.22,362.48Zm-6-5.67A15.15,15.15,0,0,1,70,361.08c-.05-4.08-2-12-7.88-13.66-2.46-.69-4.34-.19-5.16,1.38a4.12,4.12,0,0,0,1.1,4.93,17.19,17.19,0,0,0,4.36,2.32C63,356.29,63.63,356.54,64.22,356.81Z"></path><path d="M70.22,362.48a.37.37,0,0,1-.21-.31c-.29-3.73-4.67-9.69-9.41-11.36a.4.4,0,0,1-.22-.47.37.37,0,0,1,.47-.23c4.55,1.6,9.56,7.66,9.89,12a.36.36,0,0,1-.34.4Z"></path><path d="M70.52,357.93a.35.35,0,0,1-.22-.35c.47-9.14,4.8-15.7,8.64-17.23a3.8,3.8,0,0,1,4.24.64,4.56,4.56,0,0,1,1.52,4.16,7.49,7.49,0,0,1-4.28,5.12c-3.56,1.65-9,5-9.39,7.39a.37.37,0,0,1-.4.31Zm11.34-17a3.33,3.33,0,0,0-2.64.06c-3.37,1.34-7.14,6.86-8,14.7,2.38-3.07,8.6-6,8.91-6.13A6.72,6.72,0,0,0,84,345a3.77,3.77,0,0,0-1.3-3.5A3,3,0,0,0,81.86,341Z"></path><path d="M70.52,357.93a.35.35,0,0,1-.21-.41c1.37-6.64,7.57-12.83,9.7-14.07a.36.36,0,0,1,.5.14.37.37,0,0,1-.13.5c-2,1.19-8,7.16-9.35,13.58a.38.38,0,0,1-.44.29S70.54,358,70.52,357.93Z"></path><path d="M54.67,338.3c2.42.68,7.66,1.48,11.54.54,4.36-4.55,5.89-6.72,7.31-11.35a7.5,7.5,0,0,0,.11-3.46,1.81,1.81,0,0,0-2-1.31A2.77,2.77,0,0,0,70.17,324l-3.39,5a13.12,13.12,0,0,0,1-6.61c-.1-.82-.42-1.79-1.23-1.95s-1.64.91-1.94,1.84a23.27,23.27,0,0,0-1.12,7.49,26,26,0,0,0-4.77-6.59,1.82,1.82,0,0,0-1.44-.71c-.93.17-1,1.48-.76,2.39a16.76,16.76,0,0,0,2.87,5.8,19.47,19.47,0,0,0-7.74-4,1.72,1.72,0,0,0-1.32.05c-.77.48-.38,1.67.17,2.39a16,16,0,0,0,5.58,4.49c-1.53-.32-5.15-.67-5.62.55S52.25,337.61,54.67,338.3Z" style="fill:#BFA5E0"></path><path d="M54.67,338.3c2.42.68,7.66,1.48,11.54.54,4.36-4.55,5.89-6.72,7.31-11.35a7.5,7.5,0,0,0,.11-3.46,1.81,1.81,0,0,0-2-1.31A2.77,2.77,0,0,0,70.17,324l-3.39,5a13.12,13.12,0,0,0,1-6.61c-.1-.82-.42-1.79-1.23-1.95s-1.64.91-1.94,1.84a23.27,23.27,0,0,0-1.12,7.49,26,26,0,0,0-4.77-6.59,1.82,1.82,0,0,0-1.44-.71c-.93.17-1,1.48-.76,2.39a16.76,16.76,0,0,0,2.87,5.8,19.47,19.47,0,0,0-7.74-4,1.72,1.72,0,0,0-1.32.05c-.77.48-.38,1.67.17,2.39a16,16,0,0,0,5.58,4.49c-1.53-.32-5.15-.67-5.62.55S52.25,337.61,54.67,338.3Z" style="fill:#fff;opacity:0.30000000000000004"></path></g><g id="freepik--Plant--inject-625"><path d="M27.15,393.15a18.92,18.92,0,0,1,2.49-.5,21.52,21.52,0,0,1,3.3-.38,18.46,18.46,0,0,1,7.2,1.2,13.82,13.82,0,0,1,6,4.31,31.76,31.76,0,0,1,3.65,6.15c.13.27.36,0,.32-.21a15.66,15.66,0,0,0-9.61-11.09,18.45,18.45,0,0,0-7.63-1.27,13.48,13.48,0,0,0-3.16.53A15.12,15.12,0,0,0,27.15,393s-.09.16,0,.13Z" style="fill:#37474f"></path><path d="M23.31,389.39A1.49,1.49,0,1,0,24.9,388,1.49,1.49,0,0,0,23.31,389.39Z" style="fill:#BFA5E0"></path><path d="M24.08,396.69a1.49,1.49,0,0,0,3,.21,1.48,1.48,0,0,0-1.38-1.59A1.5,1.5,0,0,0,24.08,396.69Z" style="fill:#BFA5E0"></path><path d="M18.35,392a1.24,1.24,0,1,0,2.47.18,1.24,1.24,0,0,0-2.47-.18Z" style="fill:#BFA5E0"></path><path d="M15.55,396.56a1.24,1.24,0,1,0,1.32-1.14A1.24,1.24,0,0,0,15.55,396.56Z" style="fill:#BFA5E0"></path><path d="M11.82,393.42a1.24,1.24,0,1,0,1.32-1.15A1.25,1.25,0,0,0,11.82,393.42Z" style="fill:#BFA5E0"></path></g><g id="freepik--flower--inject-625"><path d="M38.74,366.61a50.63,50.63,0,0,0,.71,11.14,45.24,45.24,0,0,0,3.43,10.39,44.11,44.11,0,0,0,11.15,15,30.24,30.24,0,0,0,4.66,3.19,12.37,12.37,0,0,0,5.54,1.88.38.38,0,0,0,.24-.67c-.91-1-2.58-1.41-3.77-2a27.24,27.24,0,0,1-3.92-2.34,33.17,33.17,0,0,1-6.18-5.95A51,51,0,0,1,41,379a45.59,45.59,0,0,1-2-12.43c0-.24-.25-.22-.25,0Z"></path><path d="M41.16,381.68a30.74,30.74,0,0,1-16.3-9.15c-7.56-7.92-9.3-13.76-7-17.59A5.87,5.87,0,0,1,24,352s.89-5,3.67-5.51,6.65,2.71,6.65,2.71.71-2.76,1.74-3.47,10.08,2.16,12.09,8.22S49,375.45,41.16,381.68Z" style="fill:#BFA5E0"></path><path d="M41.16,381.68a30.74,30.74,0,0,1-16.3-9.15c-7.56-7.92-9.3-13.76-7-17.59A5.87,5.87,0,0,1,24,352s.89-5,3.67-5.51,6.65,2.71,6.65,2.71.71-2.76,1.74-3.47,10.08,2.16,12.09,8.22S49,375.45,41.16,381.68Z" style="opacity:0.15"></path><path d="M42.56,380.94a37,37,0,0,0,9.38-14.5c3.46-9.47,2.81-13.88-1.09-17s-6.71-.85-5.74,4.45c0,0-2.4-1.12-3.77-.09a5.51,5.51,0,0,0-1.82,4.57C39.82,359.36,46.32,371.28,42.56,380.94Z" style="fill:#BFA5E0"></path><path d="M37.64,380.9s-7.41.56-13.72-2.23-10.57-6.87-7-9.23c0,0-2.35-1.56-1.58-3.73s8-3.44,12.84-.23S37.64,380.9,37.64,380.9Z" style="fill:#BFA5E0"></path><path d="M42.56,380.94c3.3-4.35,4-12.28,3.1-16.84-1.08-5.51-5.31-10.75-9.73-11.38S28,355.64,28,355.64s-3.72-1.15-6.14,3.15c-1.66,2.95,2.61,10.44,7.24,15.51S39.1,381.33,42.56,380.94Z" style="fill:#BFA5E0"></path><path d="M42.56,380.94c3.3-4.35,4-12.28,3.1-16.84-1.08-5.51-5.31-10.75-9.73-11.38S28,355.64,28,355.64s-3.72-1.15-6.14,3.15c-1.66,2.95,2.61,10.44,7.24,15.51S39.1,381.33,42.56,380.94Z" style="fill:#fff;opacity:0.30000000000000004"></path><path d="M43.24,387.13c.43-1.62.34-3.61,3.16-7s5-6.72,2.86-8.46-5.19,4.93-5.19,4.93-2-5.76-4.86-5c-3.73,1-.86,7.81-.86,7.81s-5.53-3.14-7-1,.77,4.13,4,5.14S42.29,385.8,43.24,387.13Z"></path></g><g id="freepik--Leaf--inject-625"><path d="M61.18,405.33a12.76,12.76,0,0,1-6.36-8.61c-1.07-6-.65-12.43,6.57-19S81,367.47,83.87,362a118.87,118.87,0,0,1-1.2,12.13C81.11,381.77,79,385.49,74,390.81,66.39,398.85,60.51,400,61.18,405.33Z" style="fill:#BFA5E0"></path><path d="M61.18,405.33a12.76,12.76,0,0,1-6.36-8.61c-1.07-6-.65-12.43,6.57-19S81,367.47,83.87,362a118.87,118.87,0,0,1-1.2,12.13C81.11,381.77,79,385.49,74,390.81,66.39,398.85,60.51,400,61.18,405.33Z" style="fill:#fff;opacity:0.15"></path><path d="M71.28,379c5.3-5,12.24-11.94,12.59-17a118.87,118.87,0,0,1-1.2,12.13C81.11,381.77,79,385.49,74,390.81c-7.59,8-13.47,9.17-12.79,14.52C54,394.66,66,384,71.28,379Z" style="opacity:0.15"></path></g><path d="M66.84,414.94s-1.6,5.91-13.2,5.43c-12.55-.51-20.2-15.51-32.89-11.71,0,0,3.64-13.14,25.89-12.21C67.79,397.32,66.84,414.94,66.84,414.94Z" style="fill:#BFA5E0"></path><path d="M66.84,414.94s-1.6,5.91-13.2,5.43c-12.55-.51-20.2-15.51-32.89-11.71,0,0,3.64-13.14,25.89-12.21C67.79,397.32,66.84,414.94,66.84,414.94Z" style="fill:#fff;opacity:0.30000000000000004"></path><path d="M53.64,420.37c11.6.48,13.2-5.43,13.2-5.43C57,396.5,24.68,401.17,20.75,408.66,33.44,404.86,41.09,419.86,53.64,420.37Z" style="fill:#BFA5E0;opacity:0.55"></path></g><g id="freepik--plants--inject-625"><g id="freepik--flower--inject-625"><path d="M438.9,382.48a.27.27,0,0,0,.1-.06.37.37,0,0,0,0-.52c-9.95-10.67-12.06-26.54-5.5-41.42a.38.38,0,0,0-.19-.49.37.37,0,0,0-.49.19c-6.68,15.15-4.52,31.33,5.65,42.22A.35.35,0,0,0,438.9,382.48Z"></path><path d="M429.53,362.5a.36.36,0,0,1-.27-.33c-.41-4.58,2-13.67,8.38-15.46,4-1.13,5.54.85,6,1.75a4.89,4.89,0,0,1-1.29,5.84,17.73,17.73,0,0,1-4.54,2.43c-2.79,1.16-5.67,2.37-7.9,5.62a.37.37,0,0,1-.15.13A.42.42,0,0,1,429.53,362.5Zm8-6.45a17.19,17.19,0,0,0,4.36-2.32,4.11,4.11,0,0,0,1.1-4.93c-.82-1.57-2.7-2.07-5.16-1.38C432,349.07,430,357,430,361.08a15.15,15.15,0,0,1,5.82-4.27C436.37,356.54,437,356.29,437.54,356.05Z"></path><path d="M429.78,362.48a.37.37,0,0,0,.21-.31c.29-3.73,4.67-9.69,9.41-11.36a.4.4,0,0,0,.22-.47.37.37,0,0,0-.47-.23c-4.55,1.6-9.56,7.66-9.89,12a.36.36,0,0,0,.34.4Z"></path><path d="M429.37,358a.37.37,0,0,1-.4-.31c-.4-2.41-5.83-5.74-9.39-7.39a7.49,7.49,0,0,1-4.28-5.12,4.56,4.56,0,0,1,1.52-4.16,3.8,3.8,0,0,1,4.24-.64c3.84,1.53,8.17,8.09,8.64,17.23a.35.35,0,0,1-.22.35Zm-12-16.44A3.77,3.77,0,0,0,416,345a6.72,6.72,0,0,0,3.87,4.57c.31.14,6.53,3.06,8.91,6.13-.89-7.84-4.66-13.36-8-14.7a3.33,3.33,0,0,0-2.64-.06A3,3,0,0,0,417.33,341.53Z"></path><path d="M429.48,357.93a.35.35,0,0,0,.21-.41c-1.37-6.64-7.57-12.83-9.7-14.07a.37.37,0,0,0-.5.14.37.37,0,0,0,.13.5c2.05,1.19,8,7.16,9.35,13.58a.38.38,0,0,0,.44.29S429.46,358,429.48,357.93Z"></path><path d="M445.33,338.3c-2.42.68-7.66,1.48-11.54.54-4.36-4.55-5.89-6.72-7.31-11.35a7.5,7.5,0,0,1-.11-3.46,1.81,1.81,0,0,1,2-1.31,2.77,2.77,0,0,1,1.47,1.32l3.39,5a13.12,13.12,0,0,1-1-6.61c.1-.82.42-1.79,1.23-1.95s1.64.91,1.94,1.84a23.27,23.27,0,0,1,1.12,7.49,26,26,0,0,1,4.77-6.59,1.82,1.82,0,0,1,1.44-.71c.93.17,1,1.48.76,2.39a16.76,16.76,0,0,1-2.87,5.8,19.47,19.47,0,0,1,7.74-4,1.72,1.72,0,0,1,1.32.05c.77.48.38,1.67-.17,2.39a16,16,0,0,1-5.58,4.49c1.53-.32,5.15-.67,5.62.55S447.75,337.61,445.33,338.3Z" style="fill:#BFA5E0"></path><path d="M445.33,338.3c-2.42.68-7.66,1.48-11.54.54-4.36-4.55-5.89-6.72-7.31-11.35a7.5,7.5,0,0,1-.11-3.46,1.81,1.81,0,0,1,2-1.31,2.77,2.77,0,0,1,1.47,1.32l3.39,5a13.12,13.12,0,0,1-1-6.61c.1-.82.42-1.79,1.23-1.95s1.64.91,1.94,1.84a23.27,23.27,0,0,1,1.12,7.49,26,26,0,0,1,4.77-6.59,1.82,1.82,0,0,1,1.44-.71c.93.17,1,1.48.76,2.39a16.76,16.76,0,0,1-2.87,5.8,19.47,19.47,0,0,1,7.74-4,1.72,1.72,0,0,1,1.32.05c.77.48.38,1.67-.17,2.39a16,16,0,0,1-5.58,4.49c1.53-.32,5.15-.67,5.62.55S447.75,337.61,445.33,338.3Z" style="fill:#fff;opacity:0.30000000000000004"></path></g><g id="freepik--plant--inject-625"><path d="M472.85,393.15a18.92,18.92,0,0,0-2.49-.5,21.52,21.52,0,0,0-3.3-.38,18.46,18.46,0,0,0-7.2,1.2,13.82,13.82,0,0,0-6,4.31,32.27,32.27,0,0,0-3.65,6.15c-.13.27-.36,0-.32-.21a15.66,15.66,0,0,1,9.61-11.09,18.45,18.45,0,0,1,7.63-1.27,13.48,13.48,0,0,1,3.16.53,15.12,15.12,0,0,1,2.53,1.13s.09.16,0,.13Z" style="fill:#37474f"></path><path d="M476.69,389.39A1.49,1.49,0,1,1,475.1,388,1.49,1.49,0,0,1,476.69,389.39Z" style="fill:#BFA5E0"></path><path d="M475.92,396.69a1.49,1.49,0,1,1-1.6-1.38A1.5,1.5,0,0,1,475.92,396.69Z" style="fill:#BFA5E0"></path><path d="M481.65,392a1.24,1.24,0,1,1-2.47.18,1.24,1.24,0,0,1,2.47-.18Z" style="fill:#BFA5E0"></path><path d="M484.45,396.56a1.24,1.24,0,1,1-1.32-1.14A1.24,1.24,0,0,1,484.45,396.56Z" style="fill:#BFA5E0"></path><path d="M488.18,393.42a1.24,1.24,0,1,1-1.32-1.15A1.25,1.25,0,0,1,488.18,393.42Z" style="fill:#BFA5E0"></path></g><g id="freepik--flower--inject-625"><path d="M461.26,366.61a50.63,50.63,0,0,1-.71,11.14,45.24,45.24,0,0,1-3.43,10.39,44.11,44.11,0,0,1-11.15,15,30.24,30.24,0,0,1-4.66,3.19,12.37,12.37,0,0,1-5.54,1.88.38.38,0,0,1-.24-.67c.91-1,2.58-1.41,3.78-2a27.69,27.69,0,0,0,3.91-2.34,33.17,33.17,0,0,0,6.18-5.95A51,51,0,0,0,459,379a45.59,45.59,0,0,0,2-12.43c0-.24.25-.22.25,0Z"></path><path d="M458.84,381.68a30.74,30.74,0,0,0,16.3-9.15c7.56-7.92,9.3-13.76,7-17.59a5.87,5.87,0,0,0-6.12-3s-.89-5-3.67-5.51-6.65,2.71-6.65,2.71-.71-2.76-1.74-3.47-10.08,2.16-12.09,8.22S451,375.45,458.84,381.68Z" style="fill:#BFA5E0"></path><path d="M458.84,381.68a30.74,30.74,0,0,0,16.3-9.15c7.56-7.92,9.3-13.76,7-17.59a5.87,5.87,0,0,0-6.12-3s-.89-5-3.67-5.51-6.65,2.71-6.65,2.71-.71-2.76-1.74-3.47-10.08,2.16-12.09,8.22S451,375.45,458.84,381.68Z" style="opacity:0.15"></path><path d="M457.44,380.94a37,37,0,0,1-9.38-14.5c-3.46-9.47-2.81-13.88,1.09-17s6.71-.85,5.74,4.45c0,0,2.4-1.12,3.77-.09a5.51,5.51,0,0,1,1.82,4.57C460.18,359.36,453.68,371.28,457.44,380.94Z" style="fill:#BFA5E0"></path><path d="M462.36,380.9s7.41.56,13.72-2.23,10.57-6.87,7-9.23c0,0,2.35-1.56,1.58-3.73s-8-3.44-12.84-.23S462.36,380.9,462.36,380.9Z" style="fill:#BFA5E0"></path><path d="M457.44,380.94c-3.3-4.35-4-12.28-3.1-16.84,1.08-5.51,5.31-10.75,9.73-11.38s7.93,2.92,7.93,2.92,3.72-1.15,6.14,3.15c1.67,2.95-2.61,10.44-7.24,15.51S460.9,381.33,457.44,380.94Z" style="fill:#BFA5E0"></path><path d="M457.44,380.94c-3.3-4.35-4-12.28-3.1-16.84,1.08-5.51,5.31-10.75,9.73-11.38s7.93,2.92,7.93,2.92,3.72-1.15,6.14,3.15c1.67,2.95-2.61,10.44-7.24,15.51S460.9,381.33,457.44,380.94Z" style="fill:#fff;opacity:0.30000000000000004"></path><path d="M456.76,387.13a13.07,13.07,0,0,0-3.16-7c-2.82-3.43-5-6.72-2.86-8.46s5.19,4.93,5.19,4.93,2-5.76,4.86-5c3.73,1,.86,7.81.86,7.81s5.53-3.14,7-1-.77,4.13-4,5.14S457.71,385.8,456.76,387.13Z"></path></g><g id="freepik--leaf--inject-625"><path d="M438.82,405.33a12.76,12.76,0,0,0,6.36-8.61c1.07-6,.65-12.43-6.57-19S419,367.47,416.13,362a118.87,118.87,0,0,0,1.2,12.13c1.56,7.62,3.67,11.34,8.69,16.66C433.61,398.85,439.49,400,438.82,405.33Z" style="fill:#BFA5E0"></path><path d="M438.82,405.33a12.76,12.76,0,0,0,6.36-8.61c1.07-6,.65-12.43-6.57-19S419,367.47,416.13,362a118.87,118.87,0,0,0,1.2,12.13c1.56,7.62,3.67,11.34,8.69,16.66C433.61,398.85,439.49,400,438.82,405.33Z" style="fill:#fff;opacity:0.15"></path><path d="M428.72,379c-5.3-5-12.24-11.94-12.59-17a118.87,118.87,0,0,0,1.2,12.13c1.56,7.62,3.67,11.34,8.69,16.66,7.59,8,13.47,9.17,12.8,14.52C446,394.66,434,384,428.72,379Z" style="opacity:0.15"></path></g><path d="M433.16,414.94s1.6,5.91,13.2,5.43c12.55-.51,20.2-15.51,32.89-11.71,0,0-3.63-13.14-25.89-12.21C432.21,397.32,433.16,414.94,433.16,414.94Z" style="fill:#BFA5E0"></path><path d="M433.16,414.94s1.6,5.91,13.2,5.43c12.55-.51,20.2-15.51,32.89-11.71,0,0-3.63-13.14-25.89-12.21C432.21,397.32,433.16,414.94,433.16,414.94Z" style="fill:#fff;opacity:0.30000000000000004"></path><path d="M446.36,420.37c-11.6.48-13.2-5.43-13.2-5.43,9.87-18.44,42.16-13.77,46.09-6.28C466.56,404.86,458.91,419.86,446.36,420.37Z" style="fill:#BFA5E0;opacity:0.55"></path></g></g><g id="freepik--Hearts--inject-625"><g id="freepik--hearts--inject-625"><path id="freepik--Heart--inject-625" d="M35.83,325.39a3.83,3.83,0,0,0-2.06-1.87h0a3.9,3.9,0,0,0-3.2.16,3.77,3.77,0,0,0-2,4.63,3.72,3.72,0,0,0-4.9-1.11,3.86,3.86,0,0,0-2,2.49v0h0a3.82,3.82,0,0,0,.3,2.76c2.38,4.44,11,4.44,11,4.44S38.2,330.3,35.83,325.39Z" style="fill:#BFA5E0"></path><path id="freepik--heart--inject-625" d="M59.09,185.67a6.78,6.78,0,0,0-3.67-3.33h0a7,7,0,0,0-5.71.28,6.73,6.73,0,0,0-3.62,8.28,6.67,6.67,0,0,0-8.76-2,7,7,0,0,0-3.6,4.45v0h0a6.76,6.76,0,0,0,.53,4.93c4.25,7.95,19.68,7.95,19.68,7.95S63.33,194.46,59.09,185.67Z" style="fill:#BFA5E0"></path><path id="freepik--heart--inject-625" d="M73.15,169.07a3.55,3.55,0,0,0-.63-2.5h0A3.63,3.63,0,0,0,70,165a3.51,3.51,0,0,0-4,2.54,3.47,3.47,0,0,0-3.22-3.39,3.6,3.6,0,0,0-2.84.89h0a3.55,3.55,0,0,0-1.2,2.29C58.28,172,65,176.49,65,176.49S72.44,174.1,73.15,169.07Z" style="fill:#BFA5E0"></path><path id="freepik--heart--inject-625" d="M46.41,158.41a2.56,2.56,0,0,0-1.33-1.34h0a2.69,2.69,0,0,0-2.19,0,2.58,2.58,0,0,0-1.54,3.09,2.55,2.55,0,0,0-3.31-.93,2.7,2.7,0,0,0-1.46,1.63h0a2.61,2.61,0,0,0,.11,1.9c1.46,3.11,7.36,3.41,7.36,3.41S47.86,161.85,46.41,158.41Z" style="fill:#BFA5E0"></path><path id="freepik--heart--inject-625" d="M464.17,325.39a3.83,3.83,0,0,1,2.06-1.87h0a3.9,3.9,0,0,1,3.2.16,3.77,3.77,0,0,1,2,4.63,3.72,3.72,0,0,1,4.9-1.11,3.86,3.86,0,0,1,2,2.49v0h0a3.82,3.82,0,0,1-.3,2.76c-2.38,4.44-11,4.44-11,4.44S461.8,330.3,464.17,325.39Z" style="fill:#BFA5E0"></path><path id="freepik--heart--inject-625" d="M440.91,185.67a6.78,6.78,0,0,1,3.67-3.33h0a7,7,0,0,1,5.72.28,6.74,6.74,0,0,1,3.61,8.28,6.67,6.67,0,0,1,8.76-2,7,7,0,0,1,3.6,4.45v0h0a6.76,6.76,0,0,1-.53,4.93c-4.25,7.95-19.68,7.95-19.68,7.95S436.67,194.46,440.91,185.67Z" style="fill:#BFA5E0"></path><path id="freepik--heart--inject-625" d="M426.85,169.07a3.55,3.55,0,0,1,.63-2.5h0A3.63,3.63,0,0,1,430,165a3.51,3.51,0,0,1,4,2.54,3.47,3.47,0,0,1,3.22-3.39,3.6,3.6,0,0,1,2.84.89h0a3.55,3.55,0,0,1,1.2,2.29c.45,4.67-6.23,9.13-6.23,9.13S427.56,174.1,426.85,169.07Z" style="fill:#BFA5E0"></path><path id="freepik--heart--inject-625" d="M453.59,158.41a2.56,2.56,0,0,1,1.33-1.34h0a2.69,2.69,0,0,1,2.19,0,2.58,2.58,0,0,1,1.54,3.09,2.55,2.55,0,0,1,3.31-.93,2.67,2.67,0,0,1,1.46,1.63h0a2.61,2.61,0,0,1-.11,1.9c-1.46,3.11-7.36,3.41-7.36,3.41S452.14,161.85,453.59,158.41Z" style="fill:#BFA5E0"></path></g></g><g id="freepik--Lights--inject-625"><g id="freepik--lights--inject-625"><path id="freepik--lights--inject-625" d="M455.9,77.44l-5.78-23.2-21.06-.36L398.74,77.09,394,53.18,388.18,30l-21.07-.37L250.05,126.28,133,29.62,111.91,30l-6,24.4-4.79,24.85L71,53.88,50,54.24l-5.78,23.2,60.05,290c3.1,18.9,17.18,37.32,42.25,51.79,57.2,33,149.93,33,207.13,0,25-14.45,39.12-32.84,42.23-51.72h0Z" style="fill:#BFA5E0;opacity:0.4"></path><ellipse id="freepik--lights--inject-625" cx="250.04" cy="359.41" rx="146.47" ry="84.56" style="fill:#BFA5E0;opacity:0.2"></ellipse><polygon points="452.17 43.24 454.88 41.68 454.88 52.31 452.17 53.87 452.17 43.24" style="fill:#263238"></polygon><polygon points="452.17 43.24 454.88 41.68 454.88 52.31 452.17 53.87 452.17 43.24" style="opacity:0.1"></polygon><polygon points="440.77 56.39 443.65 68.17 432.85 73.68 427.78 56.29 440.77 56.39" style="fill:#455a64"></polygon><polygon points="446.49 70.44 436.15 77.27 436.03 78.11 452.19 81.8 454.4 70.76 446.49 70.44" style="fill:#BFA5E0"></polygon><polygon points="446.61 69.6 436.15 77.27 452.31 80.97 454.4 70.76 446.61 69.6" style="fill:#455a64"></polygon><path d="M460.09,49A12.94,12.94,0,0,1,466,59.12c0,1.86-.65,3.15-1.7,3.76l-6.92,4c-1.06.61-2.51.53-4.12-.4a12.94,12.94,0,0,1-5.86-10.15c0-1.86.65-3.16,1.7-3.77l6.93-4C457,48,458.48,48,460.09,49Z" style="fill:#263238"></path><path d="M456,50.2a15.18,15.18,0,0,1,6.87,11.89c0,2.17-.77,3.69-2,4.41l-8.11,4.68c-1.24.72-2.94.62-4.83-.47A15.17,15.17,0,0,1,441,58.82c0-2.18.76-3.7,2-4.41l8.11-4.69C452.39,49,454.08,49.11,456,50.2Z" style="fill:#455a64"></path><path d="M447.9,54.85a15.17,15.17,0,0,1,6.87,11.9c0,4.38-3.07,6.15-6.87,4A15.17,15.17,0,0,1,441,58.82C441,54.44,444.11,52.66,447.9,54.85Z" style="fill:#e0e0e0"></path><path d="M447.9,56a13,13,0,0,1,5.87,10.16c0,3.74-2.63,5.26-5.87,3.39A13,13,0,0,1,442,59.4C442,55.66,444.66,54.14,447.9,56Z" style="fill:#fff"></path><polygon points="455.06 57.95 449.87 59.31 455.15 77.61 455.91 77.44 457.14 67.76 455.06 57.95" style="fill:#BFA5E0"></polygon><polygon points="455.06 57.95 450.62 59.14 455.91 77.44 457.9 67.59 455.06 57.95" style="fill:#263238"></polygon><polygon points="450.01 55 445.06 56.09 428.94 54.64 429.05 53.88 442.31 53.86 450.12 54.24 450.01 55" style="fill:#BFA5E0"></polygon><polygon points="450.12 54.24 445.17 55.33 429.05 53.88 442.42 53.1 450.12 54.24" style="fill:#263238"></polygon><polygon points="462.99 62.05 465.69 60.49 465.69 47.93 454.88 41.68 452.17 43.24 462.99 49.49 462.99 62.05" style="fill:#263238"></polygon><path d="M464.34,61.27a3.09,3.09,0,0,0,1.35-2.45V47.93l-10.81-6.25-2.71,1.56L463,49.49v10.9C463,61.31,463.6,61.7,464.34,61.27Z" style="opacity:0.05"></path><path d="M464.34,60.19a1.63,1.63,0,0,0,.75-1.29c0-.48-.33-.67-.75-.43a1.64,1.64,0,0,0-.75,1.29C463.59,60.24,463.93,60.43,464.34,60.19Z" style="fill:#fff"></path><polygon points="390.23 18.99 392.93 17.43 392.93 28.05 390.23 29.61 390.23 18.99" style="fill:#263238"></polygon><polygon points="390.23 18.99 392.93 17.43 392.93 28.05 390.23 29.61 390.23 18.99" style="opacity:0.1"></polygon><polygon points="378.83 32.13 381.71 43.92 370.91 49.43 365.84 32.03 378.83 32.13" style="fill:#455a64"></polygon><polygon points="384.54 46.19 374.21 53.02 374.09 53.85 390.25 57.55 392.46 46.5 384.54 46.19" style="fill:#BFA5E0"></polygon><polygon points="384.67 45.35 374.21 53.02 390.37 56.71 392.46 46.5 384.67 45.35" style="fill:#455a64"></polygon><path d="M398.15,24.72A12.93,12.93,0,0,1,404,34.87c0,1.85-.65,3.15-1.7,3.76l-6.93,4c-1.05.61-2.5.52-4.12-.41a13,13,0,0,1-5.86-10.15,4.09,4.09,0,0,1,1.71-3.76l6.92-4C395.09,23.7,396.54,23.79,398.15,24.72Z" style="fill:#263238"></path><path d="M394,25.94a15.17,15.17,0,0,1,6.86,11.89c0,2.18-.76,3.7-2,4.41l-8.11,4.69c-1.24.71-2.94.62-4.83-.47a15.2,15.2,0,0,1-6.87-11.9c0-2.18.77-3.7,2-4.41l8.12-4.68C390.44,24.75,392.14,24.85,394,25.94Z" style="fill:#455a64"></path><path d="M386,30.6a15.18,15.18,0,0,1,6.87,11.89c0,4.38-3.08,6.16-6.87,4a15.2,15.2,0,0,1-6.87-11.9C379.09,30.18,382.17,28.41,386,30.6Z" style="fill:#e0e0e0"></path><path d="M386,31.75a13,13,0,0,1,5.87,10.16c0,3.74-2.63,5.26-5.87,3.39a13,13,0,0,1-5.87-10.16C380.09,31.4,382.72,29.88,386,31.75Z" style="fill:#fff"></path><polygon points="393.12 33.7 387.92 35.05 393.21 53.35 393.96 53.18 395.2 43.5 393.12 33.7" style="fill:#BFA5E0"></polygon><polygon points="393.12 33.7 388.68 34.88 393.96 53.18 395.95 43.33 393.12 33.7" style="fill:#263238"></polygon><polygon points="388.07 30.75 383.12 31.84 367 30.38 367.11 29.62 380.36 29.61 388.18 29.98 388.07 30.75" style="fill:#BFA5E0"></polygon><polygon points="388.18 29.98 383.23 31.08 367.11 29.62 380.48 28.84 388.18 29.98" style="fill:#263238"></polygon><polygon points="401.05 37.8 403.75 36.23 403.75 23.67 392.93 17.43 390.23 18.99 401.05 25.23 401.05 37.8" style="fill:#263238"></polygon><path d="M402.4,37a3.07,3.07,0,0,0,1.35-2.44V23.67l-10.82-6.25L390.23,19l10.82,6.24v10.9C401.05,37.05,401.65,37.45,402.4,37Z" style="opacity:0.05"></path><path d="M402.4,35.94a1.67,1.67,0,0,0,.75-1.3c0-.48-.34-.67-.75-.43a1.67,1.67,0,0,0-.75,1.3C401.65,36,402,36.18,402.4,35.94Z" style="fill:#fff"></path><polygon points="47.92 43.24 45.21 41.68 45.21 52.31 47.92 53.87 47.92 43.24" style="fill:#263238"></polygon><polygon points="47.92 43.24 45.21 41.68 45.21 52.31 47.92 53.87 47.92 43.24" style="opacity:0.1"></polygon><polygon points="59.32 56.39 56.43 68.17 67.24 73.68 72.3 56.29 59.32 56.39" style="fill:#455a64"></polygon><polygon points="53.6 70.44 63.94 77.27 64.06 78.11 47.9 81.8 45.69 70.76 53.6 70.44" style="fill:#BFA5E0"></polygon><polygon points="53.48 69.6 63.94 77.27 47.77 80.97 45.69 70.76 53.48 69.6" style="fill:#455a64"></polygon><path d="M40,49a12.94,12.94,0,0,0-5.86,10.15c0,1.86.65,3.15,1.7,3.76l6.92,4c1.06.61,2.51.53,4.12-.4a12.94,12.94,0,0,0,5.86-10.15c0-1.86-.65-3.16-1.71-3.77l-6.92-4C43.06,48,41.6,48,40,49Z" style="fill:#263238"></path><path d="M44.12,50.2a15.18,15.18,0,0,0-6.87,11.89c0,2.17.76,3.69,2,4.41l8.12,4.68c1.23.72,2.94.62,4.82-.47a15.15,15.15,0,0,0,6.87-11.89c0-2.18-.77-3.7-2-4.41l-8.11-4.69C47.7,49,46,49.11,44.12,50.2Z" style="fill:#455a64"></path><path d="M52.18,54.85a15.19,15.19,0,0,0-6.86,11.9c0,4.38,3.07,6.15,6.86,4a15.15,15.15,0,0,0,6.87-11.89C59.05,54.44,56,52.66,52.18,54.85Z" style="fill:#e0e0e0"></path><path d="M52.18,56a13,13,0,0,0-5.86,10.16c0,3.74,2.62,5.26,5.86,3.39A13,13,0,0,0,58.05,59.4C58.05,55.66,55.42,54.14,52.18,56Z" style="fill:#fff"></path><polygon points="45.02 57.95 50.22 59.31 44.94 77.61 44.18 77.44 42.95 67.76 45.02 57.95" style="fill:#BFA5E0"></polygon><polygon points="45.02 57.95 49.47 59.14 44.18 77.44 42.19 67.59 45.02 57.95" style="fill:#263238"></polygon><polygon points="50.08 55 55.03 56.09 71.15 54.64 71.04 53.88 57.78 53.86 49.96 54.24 50.08 55" style="fill:#BFA5E0"></polygon><polygon points="49.96 54.24 54.91 55.33 71.04 53.88 57.67 53.1 49.96 54.24" style="fill:#263238"></polygon><polygon points="37.1 62.05 34.39 60.49 34.39 47.93 45.21 41.68 47.92 43.24 37.1 49.49 37.1 62.05" style="fill:#263238"></polygon><path d="M35.75,61.27a3.1,3.1,0,0,1-1.36-2.45V47.93l10.82-6.25,2.71,1.56L37.1,49.49v10.9C37.1,61.31,36.49,61.7,35.75,61.27Z" style="opacity:0.05"></path><path d="M35.75,60.19A1.63,1.63,0,0,1,35,58.9c0-.48.33-.67.75-.43a1.63,1.63,0,0,1,.74,1.29C36.49,60.24,36.16,60.43,35.75,60.19Z" style="fill:#fff"></path><polygon points="109.86 18.99 107.16 17.43 107.16 28.05 109.86 29.61 109.86 18.99" style="fill:#263238"></polygon><polygon points="109.86 18.99 107.16 17.43 107.16 28.05 109.86 29.61 109.86 18.99" style="opacity:0.1"></polygon><polygon points="121.26 32.13 118.38 43.92 129.18 49.43 134.25 32.03 121.26 32.13" style="fill:#455a64"></polygon><polygon points="115.54 46.19 125.88 53.02 126 53.85 109.84 57.55 107.63 46.5 115.54 46.19" style="fill:#BFA5E0"></polygon><polygon points="115.42 45.35 125.88 53.02 109.72 56.71 107.63 46.5 115.42 45.35" style="fill:#455a64"></polygon><path d="M101.94,24.72a12.93,12.93,0,0,0-5.86,10.15c0,1.85.65,3.15,1.7,3.76l6.92,4c1.06.61,2.51.52,4.12-.41a12.93,12.93,0,0,0,5.86-10.15c0-1.85-.65-3.15-1.7-3.76l-6.93-4C105,23.7,103.55,23.79,101.94,24.72Z" style="fill:#263238"></path><path d="M106.06,25.94a15.18,15.18,0,0,0-6.87,11.89c0,2.18.77,3.7,2,4.41l8.11,4.69c1.24.71,2.94.62,4.83-.47A15.19,15.19,0,0,0,121,34.56c0-2.18-.76-3.7-2-4.41l-8.11-4.68C109.65,24.75,108,24.85,106.06,25.94Z" style="fill:#455a64"></path><path d="M114.13,30.6a15.18,15.18,0,0,0-6.87,11.89c0,4.38,3.08,6.16,6.87,4A15.19,15.19,0,0,0,121,34.56C121,30.18,117.92,28.41,114.13,30.6Z" style="fill:#e0e0e0"></path><path d="M114.13,31.75a13,13,0,0,0-5.87,10.16c0,3.74,2.63,5.26,5.87,3.39A13,13,0,0,0,120,35.14C120,31.4,117.37,29.88,114.13,31.75Z" style="fill:#fff"></path><polygon points="106.97 33.7 112.17 35.05 106.88 53.35 106.12 53.18 104.89 43.5 106.97 33.7" style="fill:#BFA5E0"></polygon><polygon points="106.97 33.7 111.41 34.88 106.12 53.18 104.14 43.33 106.97 33.7" style="fill:#263238"></polygon><polygon points="112.02 30.75 116.97 31.84 133.09 30.38 132.98 29.62 119.72 29.61 111.91 29.98 112.02 30.75" style="fill:#BFA5E0"></polygon><polygon points="111.91 29.98 116.86 31.08 132.98 29.62 119.61 28.84 111.91 29.98" style="fill:#263238"></polygon><polygon points="99.04 37.8 96.34 36.23 96.34 23.67 107.16 17.43 109.86 18.99 99.04 25.23 99.04 37.8" style="fill:#263238"></polygon><path d="M97.69,37a3.07,3.07,0,0,1-1.35-2.44V23.67l10.82-6.25,2.7,1.57L99,25.23v10.9C99,37.05,98.44,37.45,97.69,37Z" style="opacity:0.05"></path><path d="M97.69,35.94a1.67,1.67,0,0,1-.75-1.3c0-.48.34-.67.75-.43a1.67,1.67,0,0,1,.75,1.3C98.44,36,98.1,36.18,97.69,35.94Z" style="fill:#fff"></path></g></g><g id="freepik--Shadows--inject-625"><path id="freepik--Shadow--inject-625" d="M200.57,416.35c-4.57.37-32.51,5.82-31-3.86a8,8,0,0,1,1.35-3.14c3.81-5.8,10-7.12,16-9.64A163,163,0,0,1,207.34,393c3.35-.9,6.72-1.76,10.09-2.61,10.94-2.78,21.17-5.87,31-11.61,9.06-5.31,17.54-11.65,27.16-16,4.93-2.21,10.08-3.84,15.13-5.75a241.28,241.28,0,0,0,30-14.32,20,20,0,0,1,6.86-2.73c3.56-.45,7.1,1.09,10.11,3a3.49,3.49,0,0,1,1.76,2,3.29,3.29,0,0,1-1,2.67c-1.88,2.21-4.42,3.76-6.41,5.87-2.14,2.27-3.56,5.11-5.35,7.67-2.85,4.08-7.28,6.19-11.57,8.47a118.74,118.74,0,0,1-14.88,6.67c-8.34,3.07-17.36,5.41-23.79,11.55-2.87,2.74-5.06,6.11-7.79,9-8,8.4-20.17,12-31.73,11.16-4.92-.36-10-1.42-14.69.22-3.68,1.3-6.61,4.13-10.15,5.76S204.49,416,200.57,416.35Z"></path></g><g id="freepik--Characters--inject-625"><g id="freepik--characters--inject-625"><g id="freepik--Character--inject-625"><g id="freepik--Bottom--inject-625"><polygon points="331.67 337.95 326.37 338.82 326.09 335.05 330.21 336 331.67 337.95"></polygon><path d="M331.63,327.5s1.81,2.73,2.37,3.6-1.65,5.84-2.34,6.85L330.21,336c-.34,1.29-.65,4.24-1.07,6.73s-.24,4.51-1.31,7.32c-1.59,4.16-4,6.63-9.69,7.72-10.41,2-14.86.64-17.12-.47a2.13,2.13,0,0,1-1.26-2.69C300.18,353.23,331.63,327.5,331.63,327.5Z" style="fill:#263238"></path><path d="M313.34,325.16l-1-1.61c-.89.48.38,2.92.31,5.75a49.13,49.13,0,0,1-1.76,12.42c-.27.85-.29,1-.6,1.82-1.26,3.26-7,5.59-9.63,7.63-.89.7-1.1,2.87-.68,4,3.22,2.35,9.33,2.82,16.07,1.26,4.67-1.07,9.8-3.08,10.91-9.79.56-3.39,1.37-7.89,1.95-10.43s2.93-6.11,2.73-8.67c-.11-1.41-1.87-3.82-3.44-5.83-1.45-1.84-3.29-4.88-4.27-4l.51,1.08c.05,1.15-.19,3.21-3,5.53C320,325.46,315.49,328.26,313.34,325.16Z" style="fill:#455a64"></path><path d="M319,325.82c-1.55.73-3.43,1.16-4.82.18l-.05,0a5,5,0,0,1,.82,3.74c-1.54,13-1.92,14.21-4.54,18,4.13-3.09,4.64-13.17,5.17-15.85.8-4,1.36-4.7,3.43-6Z" style="opacity:0.15"></path><path d="M318.81,330a.55.55,0,1,0,.88-.65.56.56,0,0,0-.77-.12A.55.55,0,0,0,318.81,330Z" style="opacity:0.15"></path><path d="M318.22,333.87a.55.55,0,0,0,.75.2.55.55,0,0,0-.54-.95A.55.55,0,0,0,318.22,333.87Z" style="opacity:0.15"></path><path d="M317.46,337.85a.55.55,0,0,0,.74.23.54.54,0,0,0,.24-.73.55.55,0,0,0-.74-.24A.56.56,0,0,0,317.46,337.85Z" style="opacity:0.15"></path><path d="M316.59,341.71a.55.55,0,0,0,.73.26.54.54,0,0,0,.27-.73.55.55,0,0,0-1,.47Z" style="opacity:0.15"></path><path d="M315.39,346.05a.55.55,0,0,0,.71.31.54.54,0,0,0,.32-.71.55.55,0,0,0-1,.4Z" style="opacity:0.15"></path><path d="M319.37,329.83a.2.2,0,0,0,.09-.13.22.22,0,0,0-.16-.27,9,9,0,0,0-6.59,1h0a.21.21,0,0,0-.06.3.22.22,0,0,0,.31.06,8.67,8.67,0,0,1,6.23-.91A.22.22,0,0,0,319.37,329.83Z" style="fill:#263238"></path><path d="M318.8,333.78a.22.22,0,0,0,.1-.11.23.23,0,0,0-.13-.29,9.06,9.06,0,0,0-6.65.22h0a.22.22,0,0,0-.09.29.23.23,0,0,0,.3.1,8.67,8.67,0,0,1,6.3-.2A.23.23,0,0,0,318.8,333.78Z" style="fill:#263238"></path><path d="M318.05,337.8a.29.29,0,0,0,.1-.12.22.22,0,0,0-.11-.29,9,9,0,0,0-6.66-.09h0a.22.22,0,0,0,.18.4,8.66,8.66,0,0,1,6.3.1A.31.31,0,0,0,318.05,337.8Z" style="fill:#263238"></path><path d="M317.18,341.68a.2.2,0,0,0,.11-.11.22.22,0,0,0-.1-.29,9,9,0,0,0-6.66-.34h0a.23.23,0,0,0-.12.29.22.22,0,0,0,.29.12,8.79,8.79,0,0,1,6.3.32A.23.23,0,0,0,317.18,341.68Z" style="fill:#263238"></path><path d="M316,346.06s.16-.07.12-.1c-.4-.26,0-.24-.09-.3a9,9,0,0,0-6.61-.77h0a.22.22,0,0,0-.13.28.22.22,0,0,0,.28.14,8.78,8.78,0,0,1,6.26.73A.19.19,0,0,0,316,346.06Z" style="fill:#263238"></path><path d="M243.67,218.76c-.58,11-.34,26.85-.59,45.23-.19,14.54,6.68,18.35,16.16,26.43s50.62,41.52,50.62,41.52,14.57.17,17.7-11.82c-17.16-16.1-29-34.76-41.4-43.94l-.36-55.58Z" style="fill:#37474f"></path><path d="M249.06,229.39a36.44,36.44,0,0,0,11.15,8.81l-4.29,49.32.53-47.11S249.06,235.34,249.06,229.39Z"></path><path d="M286.16,276.18l0-6-9.39,34.75,8.59,7v-6.52a170.21,170.21,0,0,0,8.21-22.72A67.09,67.09,0,0,0,286.16,276.18Z" style="fill:#263238"></path><polygon points="264.3 390.2 259.26 388.34 260.89 384.93 264 387.79 264.3 390.2"></polygon><path d="M269.45,381.11s.21,3.27.26,4.3-4.32,4.26-5.41,4.79l-.3-2.41a18.68,18.68,0,0,0-2.5,3.92c-.84,1.47-1.9,4.26-4.22,6.17-3.43,2.83-8.8,4.28-14.29,4.51s-8.64-1.1-10.2-2.28-2.07-2.57-1.69-4S269.45,381.11,269.45,381.11Z" style="fill:#263238"></path><path d="M254.71,370l-.08-1.9c-1,0-1.12,2.73-2.58,5.15a49.63,49.63,0,0,1-7.67,9.92c-5.54,5.1-10.49,8.31-13,10.6-3.31,3.08,2.56,7.9,11.51,7.35,4.45-.27,12.33-2.55,14.54-5.19s3.54-6.74,5.31-8.66,5.57-3.86,6.67-6.18c.6-1.28.26-4.25-.12-6.77-.34-2.31-.43-5.86-1.73-5.57l-.09,1.19c-.53,1-1.76,2.7-5.34,3.32C260.38,373.59,255.05,373.78,254.71,370Z" style="fill:#455a64"></path><path d="M259.29,373.39c-1.71-.14-3.55-.69-4.28-2.23l0-.05a4.32,4.32,0,0,1-1.13,3.65c-1.6,1.89-11.64,15.15-11.64,15.15s9.36-11,11.15-13c2.66-3,3.5-3.41,5.94-3.5Z" style="opacity:0.15"></path><path d="M257.08,376.91a.54.54,0,0,0,.6.48.56.56,0,0,0,.49-.61.55.55,0,0,0-.61-.48A.54.54,0,0,0,257.08,376.91Z" style="opacity:0.15"></path><path d="M254.45,379.84a.55.55,0,0,0,1.09-.12.56.56,0,0,0-.61-.49A.55.55,0,0,0,254.45,379.84Z" style="opacity:0.15"></path><path d="M251.82,382.78a.55.55,0,1,0,.48-.61A.56.56,0,0,0,251.82,382.78Z" style="opacity:0.15"></path><path d="M249.19,385.71a.55.55,0,0,0,.61.48.53.53,0,0,0,.48-.6.55.55,0,0,0-1.09.12Z" style="opacity:0.15"></path><path d="M246.57,388.65a.53.53,0,0,0,.6.48.55.55,0,0,0-.12-1.09A.55.55,0,0,0,246.57,388.65Z" style="opacity:0.15"></path><path d="M257.64,377.06a.2.2,0,0,0,.14-.06.23.23,0,0,0,0-.32,9,9,0,0,0-6.2-2.41h0a.23.23,0,0,0-.2.23.24.24,0,0,0,.24.21,8.73,8.73,0,0,1,5.87,2.29A.19.19,0,0,0,257.64,377.06Z" style="fill:#263238"></path><path d="M255,380a.27.27,0,0,0,.14-.07.22.22,0,0,0,0-.31,9,9,0,0,0-6.21-2.42h0a.24.24,0,0,0-.21.24.22.22,0,0,0,.24.2,8.72,8.72,0,0,1,5.87,2.3A.27.27,0,0,0,255,380Z" style="fill:#263238"></path><path d="M252.38,382.93a.2.2,0,0,0,.14-.06.21.21,0,0,0,0-.31,9,9,0,0,0-6.21-2.42h0a.21.21,0,0,0-.2.23.22.22,0,0,0,.23.21,8.71,8.71,0,0,1,5.87,2.29A.19.19,0,0,0,252.38,382.93Z" style="fill:#263238"></path><path d="M249.76,385.87a.21.21,0,0,0,.14-.07.22.22,0,0,0,0-.31,9,9,0,0,0-6.21-2.42h0a.22.22,0,0,0-.2.24.21.21,0,0,0,.23.2,8.69,8.69,0,0,1,5.87,2.3A.23.23,0,0,0,249.76,385.87Z" style="fill:#263238"></path><path d="M247.13,388.81a.27.27,0,0,0,.14-.07.22.22,0,0,0,0-.31,9,9,0,0,0-6.2-2.42h0a.22.22,0,0,0,0,.44,8.77,8.77,0,0,1,5.88,2.29A.22.22,0,0,0,247.13,388.81Z" style="fill:#263238"></path><path d="M282.47,304.91a159.45,159.45,0,0,1-.62,22.49c-1,8.73-12.17,50.38-12.17,50.38s-11.76,5.08-20.62-1.59c0,0,4.83-60.88,5.54-71.41,1.53-22.71,5.65-64.75,7.18-86l37-9c.7,14.08,1.38,19.45-1.16,34.87C294.76,262.05,282.47,304.91,282.47,304.91Z" style="fill:#37474f"></path></g><g id="freepik--Top--inject-625"><path d="M203.37,224.47c2.64-4.92,3.41-3.52,5.44-8.39s7.82-22,7.82-22l13,7.31s-6.71,14.62-8.33,18-.49,4.62-2.92,8.37-7.65,7.33-7.88,11.6C208.34,235.73,202.61,231.09,203.37,224.47Z" style="fill:#9a4a4d"></path><path d="M238.31,145.91c-5.7,3-8.36,5.51-10.9,11.91s-15.85,50.89-15.85,50.89l10.72,8.55,22.89-47.8Z" style="fill:#37474f"></path><path d="M262.41,137.56c8.45-.32,21.75,2.64,21.75,2.64,1.79.94,3.91,5.05,7.7,13.88,7.11,16.54,8.28,40.44,8.27,66.87-10.59,10.08-45.75,10.9-57.23,1.83a220.27,220.27,0,0,0-1.11-31.27c-1.28-10.31-3.58-17.21-4.88-24.83-2-11.83.37-19.44,1.4-20.77C238.31,145.91,252.29,137.94,262.41,137.56Z" style="fill:#455a64"></path><path d="M248.54,138.94a35.55,35.55,0,0,0-3,6.22,58.18,58.18,0,0,0-1.87,16.22c1.46-5,1.87-8.08,4-3.24a46.41,46.41,0,0,0,4.48,6.91,50.72,50.72,0,0,1-2.79-12.1,29.1,29.1,0,0,1,.39-8.35Z" style="fill:#263238"></path><path d="M264.37,123.77l1.53,6.75a48.13,48.13,0,0,1,1.65-8.58c1-3.33,1.51-9.9,1.64-13.43a17.8,17.8,0,0,0-1.74-8.86c-1.29-2.54-2.16-3.48-3.75-4.19a8,8,0,0,0-3-.69,7,7,0,0,0-2.26-3.44c-2.9-2.08-5.21-2.23-10-1.66-3,.37-6.3,1.88-9.07,3.22-3.22,1.56-5.95,4.28-9.48,4.9a22.88,22.88,0,0,1-4.46.1,2.22,2.22,0,0,0-.68.07,1.54,1.54,0,0,0-.81.76,3.82,3.82,0,0,0,.4,3.91,9.1,9.1,0,0,0,3.17,2.59c-1.38-.31-2.69,1.17-2.59,2.58a4.25,4.25,0,0,0,2.45,3.24,1.07,1.07,0,0,1,.49.37,1.22,1.22,0,0,1,.05.78,3.9,3.9,0,0,0,1.74,3.35,11.45,11.45,0,0,0,3.6,1.55c3.69,1.1,7.32,2.07,11.08,2.91,3.52.79,7.06,1.56,10.6,2.28,2.05.42,4.11.83,6.19,1.16A11.13,11.13,0,0,0,264.37,123.77Z"></path><path d="M250.55,102c-.18.13.13,1.37.18,1.57a6,6,0,0,0,.55,1.44,8.19,8.19,0,0,0,2.06,2.4,19.07,19.07,0,0,0,3,2c.45.25,1.23.48,1.54.91a6.47,6.47,0,0,1,.51,1.65c.48,1.51,1,3,1.61,4.47a7.17,7.17,0,0,0,1.25,2.09,2.76,2.76,0,0,0,2.16.94,1.47,1.47,0,0,0,.79-.27,2.29,2.29,0,0,0,.71-1.28,12.31,12.31,0,0,1,1.12-3.59c.9-1.37,4-3.54,6.55-.26s.79,9.21-1.8,10.67c-4.48,2.53-5.51-.28-5.51-.28a139.22,139.22,0,0,1,3.29,14.06c-.35,4.36-13.33,25-16.37,26.55,0,0-5.85-10.53-2.4-20.45l-1.28-5.66a17.29,17.29,0,0,1-6.47.61c-2.48-.42-5-1.65-7.06-6.64a59.05,59.05,0,0,1-4.43-19.64c-.2-4.7.95-8,1.38-8.55.19,1,2.75,2.81,7,2.46C244.31,106.74,247.23,104.42,250.55,102Z" style="fill:#b16668"></path><path d="M252.22,165.05c2.86-3.19,3.16-7,5.11-9.14s7.34-9.11,8.5-15a48.14,48.14,0,0,0,.85-11l7.2,8.4s1.09,5.25-2.83,15.39-8.27,11.29-8.27,11.29-2.9-5.87-3.92-6.67S256.32,163,252.22,165.05Z" style="fill:#263238"></path><path d="M246.34,118.39a1.65,1.65,0,1,0,3.23-.69c-.2-.93-.73-.68-1.62-.49S246.14,117.47,246.34,118.39Z"></path><path d="M250.11,127.12,245.87,130a2.51,2.51,0,0,0,3.54.78A2.66,2.66,0,0,0,250.11,127.12Z" style="fill:#9a4a4d"></path><path d="M234.17,120.93a1.69,1.69,0,0,0,2,1.34,1.71,1.71,0,0,0,1.27-2c-.2-.94-.73-.66-1.63-.47S234,120,234.17,120.93Z"></path><path d="M245.17,127.06l-6.19.77c1.43-9,2.74-11.83,2.74-11.83Z" style="fill:#9a4a4d"></path><path d="M245.83,113.24l4.23,1a2.28,2.28,0,0,0-1.7-2.65A2.1,2.1,0,0,0,245.83,113.24Z"></path><path d="M232.59,117.71l2.9-3.1a2,2,0,0,0-2.94.09A2.17,2.17,0,0,0,232.59,117.71Z"></path><path d="M248.54,138.94a22.89,22.89,0,0,0,10.78-5.28,18.23,18.23,0,0,0,3.93-6.54s.19,4.82-2,7.5c-3.94,4.84-12.27,6.32-12.27,6.32Z" style="fill:#9a4a4d"></path></g></g><g id="freepik--character--inject-625"><g id="freepik--bottom--inject-625"><path d="M209.32,242.11a124,124,0,0,1,11.1-13.34l2.7,35.65,12.27,15.47s-15.66,39.66-19,48.07c-2.81,7.13-20.31,57-20.31,57l-3.35,11.86c-9,.63-10.34-2-10-3.85s.86-9.5.86-9.5-1.81-1.14-1.63-4.42c.09-1.75,2.77-2.43,3.27-6.83,1.57-13.81,1.81-30.7,2.47-35.1,1.93-12.8,7.83-19.41,7.83-19.41,2.59-12.43,5.71-35.34,8.32-50.75C203.27,256.18,204.74,248.24,209.32,242.11Z" style="fill:#ffa8a7"></path><path d="M189.2,389.89c2.51-4.07,20.18-42.51,20.18-42.51s-7.68,21.48-9.06,27.1c-1,4-2.59,11.93-1.85,16.95s2.14,9.19,6.49,10c-2.45,1.16-11.06,6.19-13.67-.14a27.88,27.88,0,0,1-1.48-4.38c-6.36-.08-7.36-2.29-7.1-3.94.07-.43.16-1.17.24-2.05C183.7,394.29,186.7,394,189.2,389.89Z" style="fill:#f28f8f"></path><path d="M197.79,410.53s-1.43,2-7.74-1.44-7.81-6.93-7.81-6.93,3.07-13.05,6.81-9.31S197.79,410.53,197.79,410.53Z"></path><path d="M183.38,376.05c1.42-.57,4.85,1.28,6.77,3.31,2.52,2.67,2.86,6,3.89,9.9,1.09,4.2,3.26,10,5.36,11.52,1.18.83,2.31.56,3.75,0A5.42,5.42,0,0,1,202,400c1.39,0,3.3-.39,4.51-.47,4.56-.32,7.42,1.94,7.36,4.4-.11,1.93-8.36,7.95-13.88,7.6-4.58-.28-6.22.34-8.06-6.6s-2.4-10.8-4.88-6.47-4.36,14.47-4.36,14.47a3.43,3.43,0,0,1-3.75-.39s.45-6.53.3-10.69-1.67-10.86-.88-15.77S182,376.58,183.38,376.05Z" style="fill:#BFA5E0"></path><path d="M183.38,376.05c1.42-.57,4.85,1.28,6.77,3.31,2.52,2.67,2.86,6,3.89,9.9,1.09,4.2,3.26,10,5.36,11.52,1.18.83,2.31.56,3.75,0A5.42,5.42,0,0,1,202,400c1.39,0,3.3-.39,4.51-.47,4.56-.32,7.42,1.94,7.36,4.4-.11,1.93-8.36,7.95-13.88,7.6-4.58-.28-6.22.34-8.06-6.6s-2.4-10.8-4.88-6.47-4.36,14.47-4.36,14.47a3.43,3.43,0,0,1-3.75-.39s.45-6.53.3-10.69-1.67-10.86-.88-15.77S182,376.58,183.38,376.05Z" style="opacity:0.30000000000000004"></path><path d="M314.56,213.56a58.88,58.88,0,0,1-7,32.69c-6.37,11.82-9.11,17.43-13.09,26.29-1.34,3-2,9.32-1.83,14.62.11,3.52.61,12.26,1.76,13.39-2.81-1.13-3.22-4.14-4.41-7.71-1.3-3.88-1.69-13.43-2.44-16.56a5.16,5.16,0,0,0-2.05-3,16.7,16.7,0,0,0-3.85-1.67s2.05-3,3.49-9.24c1.93-8.37,2.49-18.78,6-28.5S314.56,213.56,314.56,213.56Z" style="fill:#f28f8f"></path><path d="M272.35,220.72c13.58-9.29,22.64-15.91,31-15.89,6.88,0,11.81,2.7,11.11,12.28s-6.16,15.56-14.78,25.86c-6.17,7.36-22.81,25-22.81,25Z" style="fill:#ffa8a7"></path><path d="M276.92,267.92c-7.56,7.91-24,19.27-37,17.59s-20-13.37-20-16.13.52-40.61.52-40.61l36.72-2.17s4.58.5,15.21-5.88Z" style="fill:#ffa8a7"></path><path d="M297.14,312.07c-2.35,1-9-1.73-11.2-3-4.93-2.93-7.43-5.76-7-10s1.22-7.28.26-8.8a16.69,16.69,0,0,0-3.11-3.8c-3-2.78-2.34-4.7-2.34-4.7,1.1-1.5,6-.52,9.64,2.4s2.15,14.52,3.38,16.47,8.13,6.25,9.52,7.87S298,311.08,297.14,312.07Z"></path><path d="M284.42,271.7a6.69,6.69,0,0,0-3.31-.39,24.1,24.1,0,0,1-2.91,3.47c-1.56,1.46-4.89,3.92-4.43,7,2.56-.61,7.79,1.67,9.13,3.81s1.36,3.71,1.14,9.54c-.12,3.18-.3,6.19,3.69,9.27s8.13,4.86,9.41,7.68c1.51-.57,2.06-3.18,1.77-4.69s-1.83-4-4-6.23c-2-2.06-3.31-5-4.33-9.15s-1.44-8.35-2.32-17.33A7.07,7.07,0,0,0,284.42,271.7Z" style="fill:#BFA5E0"></path><path d="M284.42,271.7a6.69,6.69,0,0,0-3.31-.39,24.1,24.1,0,0,1-2.91,3.47c-1.56,1.46-4.89,3.92-4.43,7,2.56-.61,7.79,1.67,9.13,3.81s1.36,3.71,1.14,9.54c-.12,3.18-.3,6.19,3.69,9.27s8.13,4.86,9.41,7.68c1.51-.57,2.06-3.18,1.77-4.69s-1.83-4-4-6.23c-2-2.06-3.31-5-4.33-9.15s-1.44-8.35-2.32-17.33A7.07,7.07,0,0,0,284.42,271.7Z" style="opacity:0.30000000000000004"></path><path d="M283.21,286.12c-1.21-.57-3.72.57-5.3,5.68s-3.06,10.71-3.06,10.71a1.3,1.3,0,0,1-1.52-.46s1.69-8.85,1.65-12-1.68-4.73-1.21-8.31C273.77,281.77,280.77,280.75,283.21,286.12Z" style="fill:#BFA5E0"></path><path d="M283.21,286.12c-1.21-.57-3.72.57-5.3,5.68s-3.06,10.71-3.06,10.71a1.3,1.3,0,0,1-1.52-.46s1.69-8.85,1.65-12-1.68-4.73-1.21-8.31C273.77,281.77,280.77,280.75,283.21,286.12Z" style="opacity:0.30000000000000004"></path></g><g id="freepik--top--inject-625"><g id="freepik--Dress--inject-625"><path d="M224.45,180.23c4.66,2.12,11.79,7.49,18.52,13.55,3.81,3.43,5.58,10.23,1.86,17.76a157.77,157.77,0,0,1,5.49,16.64l6,1.23,21.71-12.61s10.78,6.92,11.23,20.47c.21,6.34-3.26,11.06-5.81,16.57-1.44,3.13-3.3,6.56-4,9.93-.76,3.78-.51,7.68-1.33,11.45a20.53,20.53,0,0,1-9.09,12.89c-2.19,1.36-4.62,2.3-6.83,3.63a22.14,22.14,0,0,0-6.73,6.27c-3.34,4.77-5.94,8.64-11.92,10.25-3.41.93-8.18,1.55-11.65.64-1.31-.34-2.45-1.17-3.76-1.57a25.16,25.16,0,0,0-5.54-1.15C207,305,204.11,311.82,197,310c0,0,5.3-33.37,6-42.1.23-6.09-1.52-12.18,1.44-20.15,2.31-6.21,5.26-7.5,6.29-9.88,1.35-3.14.86-4.54.17-6.11-3.8-2.7-5.08-5.07-8.82-9.68-10.92-13.43-15.41-17.33-16.45-28.32-.68-7.21,2.82-16,9-16.86C194.54,176.92,219.79,178.11,224.45,180.23Z" style="fill:#BFA5E0"></path><path d="M287,242.08c-1.8,6.12-5.28,10.84-7.93,16.06s-1.83,9.18-2.3,15.36S272.36,285.6,265.5,290h0c1.22-.6,2.43-1.2,3.58-1.91a20.53,20.53,0,0,0,9.09-12.89c.82-3.77.57-7.67,1.33-11.45.69-3.37,2.55-6.8,4-9.93,2.55-5.51,6-10.23,5.81-16.57a25.89,25.89,0,0,0-7.08-16.82h0C286.14,225.85,288.75,236,287,242.08Z" style="fill:#fff;opacity:0.2"></path><path d="M248.46,221.84c-2-6.25-3.63-10.3-3.63-10.3,3.72-7.53,1.95-14.33-1.86-17.76-.64-.58-1.28-1.14-1.93-1.7,2.35,3.66,3.87,7.54,4.13,9.94.39,3.72-1.5,9.89-1.5,9.89Z" style="fill:#fff;opacity:0.2"></path><path d="M217.57,178.78c-9.07-1.21-23.65-3.78-23.65-3.78-3.38.46-5.33,5.26-6.86,8.95,0,10.87,8.91,24.61,15,32,4,4.83,7,6.71,15.62,13.86,2.47-5.18,2.86-8.43-.9-24.76C214.18,193.57,210.79,182.07,217.57,178.78Z" style="fill:#ffa8a7"></path><path d="M207.28,211.51c1.57,4.62,3.91,6.68,6.36,10.7a27.54,27.54,0,0,1,3.23,6.87l.85.69.62-1.44a32.4,32.4,0,0,0-3.48-6.23C212.75,219.33,209.27,215.76,207.28,211.51Z" style="fill:#f28f8f"></path><path d="M215.61,233.43l-5.45-4.9c-2.45-2.21-5-4.48-6.56-7.37s-2.16-6.57-.6-9.49c.7-1.32,1.8-2.41,2.49-3.74s.88-3.13-.15-4.21a6,6,0,0,0,5.22-4.09,9.43,9.43,0,0,0-.46-6.86c-.53-1.24-1.27-2.59-.82-3.86a2.66,2.66,0,0,1,1.39,1.92,7.88,7.88,0,0,0-2.68-11.2c-2.92-1.65-6.76-.59-10,.26A36.94,36.94,0,0,0,186.68,185a21.43,21.43,0,0,0-1.11,8.82c1,11,5.53,14.89,16.45,28.32,3.74,4.61,5,7,8.82,9.68.69,1.57,1.18,3-.17,6.11-1,2.38-4,3.67-6.29,9.88-3,8-1.21,14.06-1.44,20.15-.49,6.23-3.32,25-4.91,35.24.07-.3.13-.6.19-.9a57.33,57.33,0,0,1,4.16-13.15c2.08-4.57,4.75-8.86,6.82-13.44a11,11,0,0,0,1.22-4.43c0-2.61-1.62-4.88-2.73-7.24a16.4,16.4,0,0,1-1.54-9.08,12.92,12.92,0,0,1,2.31-5.82c1.13-1.54,3-2.68,3.65-4.54a3,3,0,0,1,.43-1c.43-.53,1.27-.56,1.72-1.07.7-.77.1-2.15.73-3,.47-.6,1.37-.64,2-1.09a2.34,2.34,0,0,0,.53-2.74A6.81,6.81,0,0,0,215.61,233.43Z" style="opacity:0.15"></path></g><path id="freepik--Arm--inject-625" d="M268.13,136.08c0,5.14-7.7,33.77-8.51,36.18,0,0-6.65,2-14.45,3.85-9.38,2.27-14.49,1.72-18.41,2.62a26.33,26.33,0,0,1-5.22.69,5.62,5.62,0,0,0-3.08,5.18c-.15,4.37,1.79,9.21,3.59,11.24,2.83,3.19,6.37,3.62,10.14,2.86,0,0,30.16-9.09,35.94-11.58s6.67-3.25,7.12-9.13.91-28.8.91-32.87a30.48,30.48,0,0,0-2.28-12.21c-1.79-4.38-8.06-6.61-8.06-6.61Z" style="fill:#ffa8a7"></path><g id="freepik--Head--inject-625"><path d="M213.44,136.72a3.53,3.53,0,0,0-.95.26,10.19,10.19,0,0,0,.6-5.44c-.72-3-3.81-5-6.87-5.63-6.26-1.32-10.9,2.28-16.53,4.1a30.07,30.07,0,0,0-5.27,2.2,26.67,26.67,0,0,0-8.43,7.2,15.43,15.43,0,0,0-2.68,4.92c-.67,2.28-.06,4.08.29,6.31.3,1.9.14,3.85.48,5.77a44.92,44.92,0,0,0,1.68,6.27c2.81,8.5,24.9,6.43,26.65,12.32l6-16.61c-.27-.72.67-2.44.88-3.17a16.83,16.83,0,0,1,1.84-3.61c.54-.92,1.2-2.89,2.15-3,1.26-.18,2.2.32,3.46-.41a4.5,4.5,0,0,0,2.22-3.38,3.09,3.09,0,0,1-1.47,1.28,1.28,1.28,0,0,1-1.63-.7,1.77,1.77,0,0,1,.12-1c.52-1.45,1.46-2.81,1.4-4.34a3.46,3.46,0,0,0-3.91-3.3Z"></path><path d="M216.51,150.39s5.13,4,4.84,4.65-2.35,2-2.35,2Z" style="fill:#f28f8f"></path><path d="M203,136.89c4,.61,8.56,2.66,13.88,14.21,5.46,11.86,4.93,15.7,3.68,17.88-.85,1.47-7.89,5.17-11.4,5.23-4.4.08-14.4-1.27-20.49-6.36-7.17-6-11.31-15.67-7-21.34C187.69,138.53,199.62,136.38,203,136.89Z" style="fill:#ffa8a7"></path><path d="M220.27,169.3a19.28,19.28,0,0,1-10,5v-2.48a19.78,19.78,0,0,0,4.47-.5A20.91,20.91,0,0,0,220.27,169.3Z" style="fill:#f28f8f"></path><path d="M210.27,171.78l1.27,7.6c-5.93,2.67-10.91,2.3-14.06.53l-2.16-10.61Z" style="fill:#ffa8a7"></path><path d="M211.72,184.85a9.08,9.08,0,0,0-.61-2.63,15.69,15.69,0,0,0-1.79-3.2,9.63,9.63,0,0,1-1.69-2.46c-.63-2.1.49-4.51.48-6.63a7,7,0,0,0-.67-3.38,7.19,7.19,0,0,0-1.21-1.54,5.93,5.93,0,0,1-1.76,1.42c-.13,0-.25.09-.38.12-2.92.63-4.58-1.7-5.41-3.08-1.81-3-2.13-4.79-1.05-6.46a3.88,3.88,0,0,1,3.74-1.64,5.32,5.32,0,0,1,2.7,1c.78.69,1.11,1.68,2.07,2.22.75.42,1.72.61,2.11,1.36a2.65,2.65,0,0,1,.09,1.65,1.73,1.73,0,0,0,1.13-2c-.19-.8-.92-1.34-1.34-2.05-1.4-2.4,1-4.52,1.63-6.64.62-2-.41-3.34-1.77-4.5a6.25,6.25,0,0,0,2.07-4.94c-.1-3.22-.59-8.1-15.16-6.05a45.92,45.92,0,0,0-15.65,6.06c-.45.28-.9.58-1.34.89a15.58,15.58,0,0,0-3.48,3.06s-.55,1.6-1.4.93c-6.94,1.16-8.33,9.48-7.57,14.42a31.9,31.9,0,0,1,.32,9.35c-.42,2.41-2.67,5-4.23,6.9a19.18,19.18,0,0,0-3.91,6.71,8.23,8.23,0,0,0,1.21,7.43c.76.92,1.78,1.61,2.47,2.58a2.71,2.71,0,0,1,.15,3.3c-.84.91-2.32.7-3.47.27a4.15,4.15,0,0,0,3.62,3.95,5.31,5.31,0,0,0,5-2.5,7.23,7.23,0,0,0,.71,9.32c1.51,1.44,3.68,2.22,4.72,4a4.33,4.33,0,0,1,.17,4,5.34,5.34,0,0,1-3.16,2.39,6.08,6.08,0,0,0,4,.39,5.77,5.77,0,0,0,3.61-2c-1.12,1.35-.73,5.54,0,7a20.24,20.24,0,0,0,1.5,2.11,3.47,3.47,0,0,1,.75,2.41,1.65,1.65,0,0,1-1.81,1.45c1,1.53,3.42,1.4,4.78.2s1.92-3.05,2.4-4.8a5.24,5.24,0,0,0,3.68,1.32,6.53,6.53,0,0,0,4-.91,5.68,5.68,0,0,0,2.15-4.56,17,17,0,0,0-1-5.12,5,5,0,0,0,7.46,2.44,6.3,6.3,0,0,1-1.07-8.81c1.67-2,4.32-3.85,3.16-6.82a8.6,8.6,0,0,0-1.15-1.9,6.86,6.86,0,0,0,4.45-.24,5,5,0,0,0,2.91-3.26,5.74,5.74,0,0,0-.31-3.47c-.71-1.87-1.72-4-1.55-6a2.15,2.15,0,0,1,1-1.87,1.74,1.74,0,0,1,2,.65,5,5,0,0,1,.81,2.08A6.43,6.43,0,0,0,211.72,184.85Z"></path></g></g></g><g id="freepik--arm--inject-625"><path d="M207.33,228.64A16.87,16.87,0,0,0,211,231.9a14.77,14.77,0,0,0,2.48,1.25,5.57,5.57,0,0,1,2.32,1.48,1.34,1.34,0,0,1,.28.62,1.32,1.32,0,0,1-.49,1.18,2.71,2.71,0,0,1-1.21.54,1.59,1.59,0,0,0-.92.4,1.26,1.26,0,0,0-.23.56c-.17.7-.34,1.5-1,1.85a2.43,2.43,0,0,0-.67.38,1,1,0,0,0-.21.44,14,14,0,0,1-.45,1.83.79.79,0,0,1-1,.56,3.08,3.08,0,0,1-1.28-.57,9.23,9.23,0,0,1-3.86-5c-.49-1.87-.93-3.74-1.34-5.63-.36-1.67-1.28-3.6-.9-5.3a8.31,8.31,0,0,1,1.11-2.61Z" style="fill:#b16668"></path><path d="M265.69,229.78c-3.77,2.46-8,7-11.85,9.35-1.76,1.05-7.67,2.54-9.68,2.8a27.13,27.13,0,0,1-4.4.12,54.62,54.62,0,0,1-5.57-.36,7.28,7.28,0,0,1-3.39-1,17.23,17.23,0,0,0-2.2-1.75c-1.07-.51-2.49-.27-3.34-1.11-.35-.35-.55-.85-.94-1.15a3.59,3.59,0,0,0-1.76-.44,4.72,4.72,0,0,1-1.71-.6c-.6-.34-1.18-1.05-.86-1.66a1.32,1.32,0,0,1,.47-.47c2.63-1.89,6-2.12,9.27-2.44,2.49-.25,5.51-.26,7.74-1.52a2.5,2.5,0,0,0,1.34-1.5,2,2,0,0,0-.85-2c-.66-.51-1.5-.76-2.2-1.21a27.33,27.33,0,0,1-2.76-1.75,4.23,4.23,0,0,1-1.07-1.24,2,2,0,0,1-.15-1.59A.52.52,0,0,1,232,220a.61.61,0,0,1,.33,0,15.62,15.62,0,0,1,1.78.49,52.51,52.51,0,0,0,7.08,1c3.15.47,5.71,1.86,9.13.95,2.87-.76,4.81-2.32,7.68-4.54,4.83-3.75,20.54-18.91,20.54-18.91l1.13-34s.32-17.59,5.37-24.11c8.28,1.92,11.75,6.35,13.12,9.9,2.08,5.36.2,38.81-.66,48.74-.54,6.19-.26,7.38-4.94,11.12C289.27,213.37,272.55,225.29,265.69,229.78Z" style="fill:#b16668"></path><path d="M284.16,140.2c7.8,1.73,12.18,5.11,13.87,8.59s1.72,6.37,2.1,17.51-2.14,34.5-2.44,36.88-.27,5-7.83,10-21,14.48-21,14.48-.76-7.84-10-10.44L278.14,199s.59-30.65.79-36.36S280.34,146.82,284.16,140.2Z" style="fill:#37474f"></path></g></g></g><g id="freepik--speech-bubble--inject-625"><g id="freepik--speech-bubble--inject-625"><g id="freepik--speech-bubble--inject-625"><path d="M245.43,73.9l3.06-5.76L246,61V56.67L253.57,61v4.35L250.33,71a.59.59,0,0,1-.22.2h0Z" style="fill:#BFA5E0"></path><path d="M245.43,73.9l3.06-5.76L246,61V56.67L253.57,61v4.35L250.33,71a.59.59,0,0,1-.22.2h0Z" style="opacity:0.30000000000000004"></path><path d="M231.34,26a5,5,0,0,1,2.26-3.92L235.44,21A5,5,0,0,1,240,21L266.4,36.21a5,5,0,0,1,2.26,3.92V69.58a5,5,0,0,1-2.26,3.91l-1.84,1.07a5,5,0,0,1-4.52,0l-11.21-6.43-3.23,5.6a.49.49,0,0,1-.88-.08l-3.42-9.88-7.7-4.43a5,5,0,0,1-2.26-3.92Z" style="fill:#BFA5E0"></path><path d="M254.87,50.81a12.84,12.84,0,0,0-1.08-5.06h0l0,0a8.85,8.85,0,0,0-3.23-4.13c-2.2-1.3-4,1.34-4.33,4.45-.27-3.43-2.07-8.22-4.28-9.51a2.4,2.4,0,0,0-3.25.32v0h0a5.7,5.7,0,0,0-1.11,3.78c0,5.26,3.14,10,5.79,15.06L246.15,61,249,59C251.65,57.11,254.84,56.07,254.87,50.81Z" style="fill:#fafafa"></path><path d="M268.66,69.58a5,5,0,0,1-2.26,3.91l-1.84,1.07a5.06,5.06,0,0,1-4.14.18c1.07.4,1.88-.2,1.88-1.49V43.81a4.73,4.73,0,0,0-.66-2.23L268,37.9a4.62,4.62,0,0,1,.66,2.23Z" style="opacity:0.30000000000000004"></path><path d="M231.41,25.33c.26-1,1.14-1.26,2.18-.66L260,39.89a4.48,4.48,0,0,1,1.59,1.69L268,37.91a4.56,4.56,0,0,0-1.59-1.69L240,21a5,5,0,0,0-4.53,0l-1.85,1.06A5,5,0,0,0,231.41,25.33Z" style="fill:#fff;opacity:0.30000000000000004"></path></g></g></g></svg>