<svg xmlns="http://www.w3.org/2000/svg" viewBox="0 0 500 500"><g id="freepik--background-simple--inject-615"><path d="M326.83,47.06S247.49,15.89,171.61,59.88,59.28,194.38,27.83,266.82,17.63,414.43,77.41,450.1s98.47-13.38,181-13.52,105.06,12.73,172.29-33.76,76.55-160.45,20.22-246.54S326.83,47.06,326.83,47.06Z" style="fill:#BFA5E0"></path><path d="M326.83,47.06S247.49,15.89,171.61,59.88,59.28,194.38,27.83,266.82,17.63,414.43,77.41,450.1s98.47-13.38,181-13.52,105.06,12.73,172.29-33.76,76.55-160.45,20.22-246.54S326.83,47.06,326.83,47.06Z" style="fill:#fff;opacity:0.7000000000000001"></path><g style="opacity:0.33"><path d="M326.83,47.06s-13.71-5.38-35.17-8.51l182,310.65C497.92,294,491.27,218,450.91,156.28,394.57,70.2,326.83,47.06,326.83,47.06Z"></path><path d="M16.56,302.5l-.67,58.78a135.12,135.12,0,0,0,12.94,37.55L136.69,85.56C83.68,133.65,54,206.5,27.83,266.82A178.78,178.78,0,0,0,16.56,302.5Z"></path></g></g><g id="freepik--Floor--inject-615"><ellipse cx="252.25" cy="450.5" rx="187.75" ry="10.5" style="fill:#263238"></ellipse></g><g id="freepik--Plants--inject-615"><path d="M437.1,278.88c-3.78-1-4.6,2.67-5.37,5.18-1.06-1.43-2.51-2.65-4.51-1.7-1.45.69-1.25,3.15-.71,4.51-1.75-.67-3.84-1.2-5.12.64-1.06,1.52,0,3.64.91,5-1.26-.38-3.39-.24-3.91,1.07-1.06,2.64.45,4.11,2.82,4.64-1.67,1.15-4.47,2.34-2.95,5.16s5.89.77,8.34-.89c1.54-1,4-1,5.86-.54-.71-2.42-.76-4.57,1-6.64,1.57-1.84,3.8-2.34,6.15-2.2-.48-1.26-1.27-2.54-1.06-4C439,286,440.87,279.91,437.1,278.88Z" style="fill:#BFA5E0"></path><path d="M474.7,326.32c1.71-3.56,1.57-6.17-1-7.59s-4.44.22-5.85,3.77c-1.1,2.75-3,11-3.85,14.77-1.58-3.75-3.25-7.67-4.93-11.6,2.84-2.94,7.71-10.12,8.89-13.11,1.37-3.45,1.33-6.06-1.23-7.16s-4.24.52-5.92,3.84c-1.28,2.57-2.69,10.73-2.68,14.53-2.16-4-4.24-8.14-7.24-11.86.45-4.79-4.1-12.31-6.92-15.2-3.09-3.17-6.91-3.18-9.31-.46s-1.75,5.58,1.19,8.57c2.69,2.73,9.13,7.33,13.64,8A57.64,57.64,0,0,1,457,325.44c-3.18-2.6-11.07-5.68-14.1-6.45-3.59-.91-6-.49-6.68,2.13s1.52,4.18,5,4.91,12,1.38,16.34.56a123.65,123.65,0,0,1,5.12,12.12c-3.09-2.63-10.72-6.41-13.71-7.28-3.55-1-6.08-.68-6.82,1.91s1.33,4.19,4.76,5.06,11.84,2,16.17,1.36a82,82,0,0,1,3.54,11.42c-2.64-3-9.75-6.81-12.65-7.78-3.43-1.16-6-.84-6.83,1.72s1.23,4.32,4.52,5.28,11.13,2.34,15.27,2c.54,1.5.94,3.15,1.43,4.57.2.55.55.7,1,.52a.8.8,0,0,0,.48-1.1,38.69,38.69,0,0,1-1.32-4.76,65.57,65.57,0,0,0,11.09-12.35c2-3.37,2.19-5.82-.22-7.33s-4.36.28-6.08,3.61a101.87,101.87,0,0,0-5.3,14.18c-1-3.47-2.13-7.07-3.33-10.7C468.12,336.29,473.21,329.41,474.7,326.32Z" style="fill:#263238;stroke:#263238;stroke-miterlimit:10"></path><path d="M383.19,343.74c-3.08,2.42-.59,5.29,1,7.4-1.78,0-3.62.44-4,2.62-.3,1.56,1.79,2.88,3.21,3.25-1.59,1-3.25,2.37-2.53,4.5.59,1.75,2.93,2.15,4.58,2.26-1.05.79-2.2,2.58-1.46,3.78,1.49,2.42,3.57,2.09,5.41.49-.07,2-.78,5,2.39,5.45s4.12-4.28,4.24-7.24c.08-1.86,1.62-3.84,3.06-5-2.37-.87-4.13-2.12-4.74-4.75-.56-2.36.37-4.45,1.88-6.25-1.29-.37-2.79-.49-3.85-1.54C390.07,346.48,386.26,341.32,383.19,343.74Z" style="fill:#BFA5E0"></path><path d="M443.69,341.76c-1.84-3.5-4-4.94-6.67-3.74s-2.47,3.7-.46,7c1.56,2.51,7,9,9.58,11.88l-12.25-2.94c-.67-4-3.55-12.21-5.25-15-2-3.15-4.08-4.67-6.49-3.27s-2.11,3.72-.43,7c1.3,2.56,7,8.55,10.07,10.8-4.51-.65-9.06-1.43-13.83-1.24-3.59-3.21-12.33-4-16.34-3.48-4.38.6-6.67,3.66-5.91,7.21s3.45,4.72,7.6,4.14c3.79-.54,11.32-3,14.52-6.21a57.7,57.7,0,0,1,14.64,1.48c-4,1-11.15,5.52-13.57,7.49-2.87,2.35-4,4.57-2.26,6.64s4.25,1.26,6.92-1.1,8.25-8.83,10.17-12.8a125.47,125.47,0,0,1,12.78,3.1c-3.94.92-11.52,4.8-14,6.68-2.95,2.24-4.17,4.49-2.52,6.63s4.15,1.42,6.9-.82,8.66-8.32,10.71-12.18A79.48,79.48,0,0,1,458.88,363c-4,.34-11.27,3.78-13.78,5.53-3,2.07-4.23,4.31-2.68,6.52s4.21,1.58,6.93-.49S457.86,367,460,363.46c1.54.46,3.1,1.13,4.53,1.57.56.17.89,0,1-.48a.8.8,0,0,0-.6-1,38.38,38.38,0,0,1-4.61-1.77A65.42,65.42,0,0,0,457,345.47c-1.51-3.61-3.37-5.22-6-4.18s-2.37,3.67-.72,7A103.84,103.84,0,0,0,458.51,361c-3.4-1.23-6.95-2.5-10.58-3.69C447.79,353,445.29,344.8,443.69,341.76Z" style="fill:#263238;stroke:#263238;stroke-miterlimit:10"></path><path d="M48.54,328.81c2.94-.8,3.58,2.08,4.18,4,.82-1.11,2-2.06,3.51-1.32,1.12.53,1,2.45.54,3.51,1.37-.53,3-.93,4,.5.82,1.17,0,2.83-.71,3.91,1-.29,2.63-.18,3,.83.82,2.05-.35,3.2-2.2,3.61,1.3.9,3.48,1.82,2.3,4s-4.58.59-6.49-.7a6.09,6.09,0,0,0-4.55-.42c.56-1.88.59-3.55-.77-5.16a5.51,5.51,0,0,0-4.78-1.71,6.24,6.24,0,0,0,.82-3.12C47.07,334.38,45.61,329.61,48.54,328.81Z" style="fill:#BFA5E0"></path><path d="M19.31,365.69c-1.33-2.77-1.22-4.79.76-5.89s3.45.16,4.55,2.93a111.64,111.64,0,0,1,3,11.48c1.23-2.92,2.53-6,3.83-9A46.47,46.47,0,0,1,24.53,355c-1.06-2.68-1-4.71,1-5.57s3.29.4,4.59,3c1,2,2.1,8.34,2.09,11.29a58.23,58.23,0,0,1,5.63-9.22c-.35-3.72,3.19-9.56,5.38-11.81,2.4-2.47,5.37-2.48,7.24-.36s1.35,4.34-.93,6.66c-2.09,2.12-7.1,5.7-10.6,6.2A44.85,44.85,0,0,0,33,365c2.48-2,8.61-4.41,11-5,2.79-.71,4.7-.38,5.2,1.65s-1.18,3.25-3.89,3.82-9.34,1.07-12.7.43a96.59,96.59,0,0,0-4,9.43,41.87,41.87,0,0,1,10.65-5.67c2.76-.8,4.73-.52,5.31,1.49s-1,3.26-3.7,3.94-9.21,1.56-12.57,1.06A62.52,62.52,0,0,0,25.56,385c2.06-2.32,7.58-5.29,9.83-6,2.68-.9,4.66-.65,5.32,1.34s-1,3.36-3.51,4.1-8.66,1.83-11.88,1.52c-.42,1.17-.73,2.45-1.11,3.55-.15.43-.42.54-.77.41a.62.62,0,0,1-.37-.86,27.68,27.68,0,0,0,1-3.7,51.13,51.13,0,0,1-8.62-9.6c-1.55-2.62-1.7-4.52.17-5.7s3.4.22,4.73,2.81a80.32,80.32,0,0,1,4.12,11c.81-2.69,1.66-5.5,2.59-8.32A38.55,38.55,0,0,1,19.31,365.69Z" style="fill:#263238;stroke:#263238;stroke-miterlimit:10"></path><path d="M101.53,358.75c3.77,1,2.58,4.65,2,7.2,1.64-.69,3.51-1,4.74.85.89,1.33-.54,3.35-1.7,4.24,1.85.31,3.91.93,4.07,3.17.13,1.84-1.88,3.12-3.36,3.86,1.27.32,3,1.53,2.81,2.92-.44,2.81-2.49,3.31-4.8,2.54.84,1.85,2.64,4.3-.11,6s-5.45-2.36-6.71-5.05c-.78-1.68-3-2.92-4.75-3.45,1.85-1.72,3-3.55,2.54-6.21-.39-2.39-2.06-4-4.15-5,1.06-.84,2.39-1.53,3-2.91C96.24,363.93,97.76,357.7,101.53,358.75Z" style="fill:#BFA5E0"></path><path d="M44.94,380.24c.35-3.94,1.8-6.1,4.71-6s3.71,2.46,3.1,6.24c-.46,2.92-3,11-4.25,14.65,3.27-2.41,6.72-4.92,10.16-7.44-.93-4-1.43-12.63-.91-15.81.59-3.66,2-5.88,4.72-5.52s3.38,2.62,3.11,6.33c-.2,2.86-3.18,10.59-5.13,13.85,3.91-2.34,7.81-4.82,12.29-6.48,2.07-4.35,9.82-8.47,13.73-9.51,4.27-1.14,7.57.81,8.23,4.37s-1.36,5.69-5.41,6.75c-3.71,1-11.6,1.62-15.8-.13a57.91,57.91,0,0,0-12.93,7c4.06-.6,12.41.79,15.4,1.68,3.56,1.06,5.45,2.68,4.66,5.25s-3.44,2.81-6.82,1.66-11-5-14.31-7.89A123.22,123.22,0,0,0,48.89,397c4-.68,12.48,0,15.5.76,3.58.93,5.57,2.53,4.87,5.14s-3.28,2.92-6.67,1.91-11.2-4.34-14.59-7.11a82.15,82.15,0,0,0-8.89,8c3.8-1.21,11.86-.85,14.85-.2,3.54.76,5.57,2.34,5,5s-3.26,3.08-6.57,2.22S41.6,409,38.25,406.56c-1.24,1-2.42,2.23-3.57,3.19-.45.37-.83.32-1.12-.06a.81.81,0,0,1,.15-1.19,36.53,36.53,0,0,0,3.57-3.41,66.06,66.06,0,0,1-3.2-16.29c0-3.92,1.1-6.12,4-6.18s3.6,2.47,3.37,6.21a102.66,102.66,0,0,1-2.71,14.9c2.66-2.45,5.45-5,8.34-7.49C45.48,392.18,44.63,383.66,44.94,380.24Z" style="fill:#263238;stroke:#263238;stroke-miterlimit:10"></path></g><g id="freepik--Characters--inject-615"><path d="M206.56,425.39s-1.76,1.67-4.26,4.17S195,435.2,186.15,438s-13.73,4.39-12.28,7,6.82,4.65,19.73,4.77,17.54-1.95,18.57-2.27,5.06,1.06,9.5.3,6-.57,7.16-4,.59-9,.78-10.31S206.56,425.39,206.56,425.39Z" style="fill:#BFA5E0;stroke:#263238;stroke-linecap:round;stroke-linejoin:round"></path><path d="M228.83,443.73s0,0,0-.05c-.61-.05-1.25-.07-1.93-.07-10.91,0-14.74,3.87-28.3,4A69,69,0,0,1,174,443.2h0a1.51,1.51,0,0,0-.07,1.77c1.45,2.56,6.82,4.65,19.73,4.77s17.54-1.95,18.57-2.27,5.06,1.06,9.5.3S227.69,447.21,228.83,443.73Z" style="fill:#878787;stroke:#263238;stroke-linecap:round;stroke-linejoin:round"></path><path d="M369.15,418.06s4.38,13.47,6.76,18.87,7.7,11.45,12.44,11.47,6.52-1.12,5.95-12.15-5.84-16.29-7.89-20.39-10.59-7.21-13.6-3.7A17.51,17.51,0,0,0,369.15,418.06Z" style="fill:#BFA5E0;stroke:#263238;stroke-linecap:round;stroke-linejoin:round"></path><path d="M375.91,436.93c2.39,5.41,7.7,11.45,12.44,11.47s6.52-1.12,5.95-12.15c0-.86-.12-1.66-.22-2.45-.23,7.11-2.35,13.42-9.51,10.61-4.57-1.78-8.26-7.58-10.83-13C374.52,433.54,375.28,435.51,375.91,436.93Z" style="fill:#878787;stroke:#263238;stroke-linecap:round;stroke-linejoin:round"></path><path d="M251.41,257.17s-24.73,35.15-30.63,47-11.06,28.11-10.18,35.57,1.46,57.5.25,63.07-1.49,10.58-1.88,12.12c-.7,2.77-3.51,4.91-3.86,7.93s-1,3.83-1,3.83,3.2,3.84,11.35,6.43,14.73,4.24,15.13,2.22,6.92-11.37,7-19.88-2.07-10.91-.85-16.48,5.5-38.84,6-48.88.78-14.05,1.2-15.58,21.76-24.65,29.39-32.05a75.82,75.82,0,0,1,16.41-11.86s15.49,9.21,18.82,15.55,17.86,35.62,27,47.67,25.44,46.75,26.17,51.22,6.17,12.7,7.24,14.15,11.87,3.12,17.68-.69-1-8.61-1.28-14.6-7.67-38.73-9.6-47.15-17.94-37.12-22.32-44.41-20.21-42.51-21-48.48-6.26-24.21-10.27-34S312.37,216,312.37,216s-11.77,14.45-22.45,21-32.84,13.71-35.31,14.34S251.41,257.17,251.41,257.17Z" style="fill:#616161;stroke:#263238;stroke-linecap:round;stroke-linejoin:round"></path><path d="M386.58,418.48c5.81-3.8-1-8.61-1.28-14.6-.29-5.57-6.65-34.21-9.11-45-7.47-2.92-16-6.56-24.79-10.85-15.25-7.47-31.93-27.2-42.78-41.68,3.53,6.75,17.84,35.53,26.87,47.44s25.44,46.75,26.17,51.22,6.17,12.7,7.24,14.15S380.77,422.29,386.58,418.48Z" style="fill:#263238;stroke:#263238;stroke-linecap:round;stroke-linejoin:round"></path><path d="M237.86,330.69s-5.45-4-8.92-4,3.47,7.94,1,8.43-11.9.5-13.38-8.92c-.77-4.86,1.5-13.82,3.88-21.35-5.75,11.75-10.7,27.52-9.83,34.83.89,7.47,1.46,57.5.25,63.07s-1.49,10.58-1.88,12.12c-.7,2.77-3.51,4.91-3.86,7.93s-1,3.83-1,3.83,3.2,3.84,11.35,6.43,14.73,4.24,15.13,2.22,6.92-11.37,7-19.88-2.07-10.91-.85-16.48,5.5-38.84,6-48.88.78-14.05,1.2-15.58a13.5,13.5,0,0,1,1.68-2.25c-2.66-2.17-6.19-5.1-9.18-7.5C231.42,320.77,237.86,330.69,237.86,330.69Z" style="fill:#263238;stroke:#263238;stroke-linecap:round;stroke-linejoin:round"></path><path d="M189.29,165.91s-1,5.73-5.56,21.65.67,32.34,3.46,41.21,19.88,10,30.09,7.46,13.88-2.72,13.88-2.72l20.25,23.66s11.91,4.39,35.54-9.84S312.37,216,312.37,216s-34.23-55.32-38.69-64.1-21.11-34-21.11-34,12-13.63,15.49-16.82,9.51-9.83,9.51-9.83L275.26,66s-12,1-26.31,14-30.54,35.62-34.21,42.15-12.47,17-13.93,21.08S189.29,165.91,189.29,165.91Z" style="fill:#BFA5E0"></path><path d="M189.29,165.91s-1,5.73-5.56,21.65.67,32.34,3.46,41.21,19.88,10,30.09,7.46,13.88-2.72,13.88-2.72l20.25,23.66s11.91,4.39,35.54-9.84S312.37,216,312.37,216s-34.23-55.32-38.69-64.1-21.11-34-21.11-34,12-13.63,15.49-16.82,9.51-9.83,9.51-9.83L275.26,66s-12,1-26.31,14-30.54,35.62-34.21,42.15-12.47,17-13.93,21.08S189.29,165.91,189.29,165.91Z" style="opacity:0.53"></path><path d="M246.2,105.86,252.69,118c3-3.63,12.35-14.13,15.37-16.88.79-.71,1.71-1.61,2.65-2.56l-1.83-3.3Z" style="opacity:0.33"></path><path d="M221.57,202.59c-1-5.9-17.7,25.08-21.63,25.08s-12.79-7.37-13.77-15.24,14.62-41.16,14.62-41.16l-4.11-19.33c-3.34,6.5-7.39,14-7.39,14s-1,5.73-5.56,21.65.67,32.34,3.46,41.21,19.88,10,30.09,7.46,13.88-2.72,13.88-2.72l20.25,23.66a14.27,14.27,0,0,0,3.62.59C249.43,246.65,222.44,207.77,221.57,202.59Z" style="opacity:0.33"></path><path d="M189.29,165.91s-1,5.73-5.56,21.65.67,32.34,3.46,41.21,19.88,10,30.09,7.46,13.88-2.72,13.88-2.72l20.25,23.66s11.91,4.39,35.54-9.84S312.37,216,312.37,216s-34.23-55.32-38.69-64.1-21.11-34-21.11-34,12-13.63,15.49-16.82,9.51-9.83,9.51-9.83L275.26,66s-12,1-26.31,14-30.54,35.62-34.21,42.15-12.47,17-13.93,21.08S189.29,165.91,189.29,165.91Z" style="fill:none;stroke:#263238;stroke-linecap:round;stroke-linejoin:round"></path><path d="M273.86,64.76c-1.31.4-9.42-1.52-13.67,6.71s.08,21,4.05,26.83,6.71,7,11.07,1.09a30.45,30.45,0,0,0,6.21-22c-.81-9.3-6.26-11.36-6.26-11.36Z" style="fill:#fff;stroke:#263238;stroke-linecap:round;stroke-linejoin:round"></path><path d="M190.38,167.52s-.39,5.37,8,13.61C203,185.6,216,190.91,216,190.91s-.87-10.31.57-14.72,4.12-10.89,7-13,12-6.63,12-6.63-14-19.31-23.12-21.17-12.83,3.66-15.31,7.46S189.61,159.22,190.38,167.52Z" style="fill:#fff;stroke:#263238;stroke-linecap:round;stroke-linejoin:round"></path><path d="M138.8,138.7s13.55,17.73,15.89,22.35,8.94,10.06,15.35,11.84,12.8,3,16.89.71a20.24,20.24,0,0,0,6.06-5s4.28,1.36,12.87,4.6,25.22,9.23,23.32,3-18.54-32.74-20.83-36.31-10.77-4.71-10.77-4.71,3-10.46-1.89-12.84-6.45.73-6.45.73-6.3-16.62-17-19.23-25.11,23.41-25.48,26.59.25,4.73-1.83,5.36A45.15,45.15,0,0,0,138.8,138.7Z" style="fill:#fff;stroke:#263238;stroke-linecap:round;stroke-linejoin:round"></path><path d="M198.5,157.52l-5.51,11s2.6.83,7.8,2.72Z" style="fill:#263238;stroke:#263238;stroke-linecap:round;stroke-linejoin:round"></path><path d="M136.9,132.48s-8.59-3.24-8.43-.09.93,7.85,8.86,8.49,18.85-2,21.26-6.36,13.65-21.24,13.47-14.38.44,8.4,3.06,8.26,6.83-.35,8,2.22,2.32,4.09,3.79,1.91-.74-4.17,1.19-7.43l1.94-3.26s-2.75-12.49-8.93-20.07-17.68-5.93-29.51-.59-17.49,18.28-17.49,18.28-3.45-5.61-5.8-.23S136.9,132.48,136.9,132.48Z" style="fill:#263238;stroke:#263238;stroke-linecap:round;stroke-linejoin:round"></path><path d="M158.9,148.54s1.66.72,2.23,3.94,1.68,8.84,3.3,8.76,6.65-4.81,6.65-4.81" style="fill:none;stroke:#263238;stroke-linecap:round;stroke-linejoin:round"></path><path d="M170.21,143.82c.73,1.13.71,2.43,0,2.92s-1.95,0-2.68-1.16-.71-2.44,0-2.93S169.49,142.69,170.21,143.82Z" style="fill:#263238"></path><path d="M158.05,151.83c.72,1.13.7,2.44-.05,2.92s-1.95,0-2.68-1.16-.71-2.44,0-2.92S157.32,150.7,158.05,151.83Z" style="fill:#263238"></path><path d="M161.34,140.7a9.2,9.2,0,0,1,8.67-4.91" style="fill:none;stroke:#263238;stroke-linecap:round;stroke-linejoin:round"></path><path d="M154.67,145.1s-5.67.3-5.8,5.58" style="fill:none;stroke:#263238;stroke-linecap:round;stroke-linejoin:round"></path><line x1="176.47" y1="150.88" x2="180.88" y2="149.84" style="fill:none;stroke:#263238;stroke-linecap:round;stroke-linejoin:round"></line><path d="M176.45,161.7a49,49,0,0,1,16-7.17" style="fill:none;stroke:#263238;stroke-linecap:round;stroke-linejoin:round"></path><path d="M165.65,176.39a31.17,31.17,0,0,1,7.8-12.21" style="fill:none;stroke:#263238;stroke-linecap:round;stroke-linejoin:round"></path><path d="M194.85,149.59s-3.24,2.58-2.09,6.13,4.19,6.53,7.54,6.11,5.79-4.39,4.06-10.08S198.33,147,194.85,149.59Z" style="fill:#BFA5E0;stroke:#263238;stroke-linecap:round;stroke-linejoin:round"></path><path d="M197,148.28s-2.23,3.49-.84,7,4.2,6.76,6,5,2.45-3.74,1.57-6.82-3.37-4.64-4.14-1,.55,6,1.38,3.54,1.25-3.92.31-3.39" style="fill:none;stroke:#263238;stroke-linecap:round;stroke-linejoin:round"></path><path d="M178.47,150.37s2.37,3.07,1.2,8.43-7.26,8.57-7.26,8.57L169.9,165a27.87,27.87,0,0,0,7.33-7.27c2.62-4.2,1.24-7.37,1.24-7.37" style="fill:none;stroke:#263238;stroke-linecap:round;stroke-linejoin:round"></path><path d="M267.5,70.76a115.25,115.25,0,0,0,.41,21c1.29,12,4.54,36.14,4.54,36.14S257,125.37,253,126.58s-8.31,7.1-2.1,11.12,19.58,4.33,24.77,1.39,6.93-8,9.22-15.49,4-51.94,2.58-59.88S274.57,59.05,267.5,70.76Z" style="fill:#fff;stroke:#263238;stroke-linecap:round;stroke-linejoin:round"></path><path d="M295.79,347.67s-8.48,3.77-6.88,9,9.74,7.51,10.68,12.8.45,9.34,6.11,15,7.81,8.95,11,5.44-2-13.24-2.49-22.56a44.56,44.56,0,0,1,2.47-16.82l-9.84-9.51Z" style="fill:#BFA5E0;stroke:#263238;stroke-linecap:round;stroke-linejoin:round"></path><path d="M299.59,369.5c.94,5.3.45,9.34,6.11,15s7.81,8.95,11,5.44a2.8,2.8,0,0,0,.44-.64c-6.43-3.62-12.07-9.43-13-15.5a25.69,25.69,0,0,0-8.84-15.9,19.47,19.47,0,0,1-4.82-6.51,5.41,5.41,0,0,0-1.57,5.27C290.52,362,298.65,364.21,299.59,369.5Z" style="fill:#fff;stroke:#263238;stroke-linecap:round;stroke-linejoin:round"></path><path d="M384.76,410c-.51-3.78-5.1-.37-11.95,2.21s-20.36,5.17-20.36,5.17a20.4,20.4,0,0,1-6.74-7.59c-2.48-4.95-10.87-32.13-14.77-46.22s-4.61-21.66-4.61-21.66a95.92,95.92,0,0,0,12.72-18.12c6.09-11.11,21.91-43,23.26-47.55s-1.26-6-14.18-10.37-56.73-4.38-56.73-4.38-3-2.07-7.25-5-8.22-5.61-8.22-5.61-7.33-.58-13.22,2.27-20,24.84-19.35,37.18,3.63,33.47,14.45,40.21,23.81,6.07,23.81,6.07,17.79,18.77,22.31,26.47,3,14.77,7.44,27.24,20.26,29.74,24.07,35.9,2.15,4.65,4.07,11.21,5.59,9.87,7.81,9.76,12.65-7,20.82-14.72S385.28,413.74,384.76,410Zm-67.87-85.07s-11.28-15.6-15.29-19.52l20.18-8.66Z" style="fill:#fff;stroke:#263238;stroke-linecap:round;stroke-linejoin:round"></path><path d="M330.94,363.52c-3.9-14.08-4.61-21.66-4.61-21.66s-6.33-12.06-9.44-17c0,0-11.28-15.6-15.29-19.52l20.18-8.66-4.3,24.77c4,4,10.19,9.11,16.5,10.53,1.63-2.39,3.37-5.16,5.07-8.26,6.09-11.11,21.91-43,23.26-47.55s-1.26-6-14.18-10.37-56.73-4.38-56.73-4.38-3-2.07-7.25-5-8.22-5.61-8.22-5.61-7.33-.58-13.22,2.27-20,24.84-19.35,37.18,3.63,33.47,14.45,40.21,23.81,6.07,23.81,6.07,17.79,18.77,22.31,26.47,3,14.77,7.44,27.24a46.33,46.33,0,0,0,3.27,6.92c4.95.37,13.66-.87,23.06-10.83C335.17,378.19,332.63,369.63,330.94,363.52Z" style="fill:#263238;stroke:#263238;stroke-linecap:round;stroke-linejoin:round"></path><polyline points="301.6 305.36 293.52 296.57 292.95 285.48" style="fill:none;stroke:#fff;stroke-linecap:round;stroke-linejoin:round"></polyline><line x1="340.22" y1="289.91" x2="344.84" y2="288.21" style="fill:none;stroke:#fff;stroke-linecap:round;stroke-linejoin:round"></line><line x1="321.78" y1="296.7" x2="336.28" y2="291.36" style="fill:none;stroke:#fff;stroke-linecap:round;stroke-linejoin:round"></line><path d="M347.32,447.12c2.21-.11,12.65-7,20.82-14.72s17.14-18.66,16.62-22.45-5.1-.37-11.95,2.21-20.36,5.17-20.36,5.17-1.47,2.3-.79,3.22,2,2.43,2,2.43a47.75,47.75,0,0,1-7.91,6.76,24.14,24.14,0,0,1-7.31,3.29,41.75,41.75,0,0,0,1,4.33C341.44,443.93,345.1,447.23,347.32,447.12Z" style="fill:#BFA5E0;stroke:#263238;stroke-linecap:round;stroke-linejoin:round"></path><path d="M347.32,447.12c2.21-.11,12.65-7,20.82-14.72s17.14-18.66,16.62-22.45a2.83,2.83,0,0,0-.15-.65c-4.9,7.9-15.75,18.59-25.32,23.87a151.45,151.45,0,0,0-16.68,10.71C344.25,446.09,346,447.19,347.32,447.12Z" style="fill:#fff;stroke:#263238;stroke-linecap:round;stroke-linejoin:round"></path><path d="M216.32,276.72a4.94,4.94,0,0,0-1.44,3.3,24.82,24.82,0,0,1-.3,4.68c-.24,2.34,0,3.76,2.09,2.22s1.13-2.39,1.23-3.83a33.16,33.16,0,0,1,1.52-5.28Z" style="fill:#fff;stroke:#263238;stroke-linecap:round;stroke-linejoin:round"></path><path d="M177.37,229.54s3.67-2.73,17.77-6.31,27.34-5.54,37-2.23,13.45,14.55,15.08,15.41,9.44,4.6,17.54,7.67a39.91,39.91,0,0,1,13.12,8.21s1.11,3.12-4.29,9.11-9,4.59-8.47,14.41,2.44,28.76.36,37.75a54.48,54.48,0,0,1-7.7,16.91S240.46,320.25,237,302s-5.34-23.53-7.25-23.75-23.78.59-38-4.39-21.85-11.26-28-19.51-8.15-10.37-5.24-15.6S177.37,229.54,177.37,229.54Z" style="fill:#BFA5E0"></path><path d="M257,282.12c-1.57-10.46,1.05-13.6.53-18.3s-4.71,4.18-8.89,5.23,5.23-6.28-3.66-9.94-25.62,6.28-38.16,5.23-26.66-8.88-37.12-20.39a34,34,0,0,0-9.07-7.44,7.66,7.66,0,0,0-2.09,2.26c-2.91,5.23-.9,7.35,5.24,15.6s13.77,14.53,28,19.51,36.09,4.17,38,4.39S233.5,283.79,237,302s20.83,28.45,20.83,28.45a54.48,54.48,0,0,0,7.7-16.91,48.2,48.2,0,0,0,.92-9.27C262.21,297.74,258,289.21,257,282.12Z" style="opacity:0.53"></path><path d="M222,238.52a113.82,113.82,0,0,1-8,14.32" style="fill:none;stroke:#263238;stroke-linecap:round;stroke-linejoin:round"></path><path d="M223,235.52a83.32,83.32,0,0,1,0,19.65" style="fill:none;stroke:#263238;stroke-linecap:round;stroke-linejoin:round"></path><line x1="265.52" y1="267.99" x2="270.03" y2="255.43" style="fill:none;stroke:#263238;stroke-linecap:round;stroke-linejoin:round"></line><line x1="265" y1="253.49" x2="265.2" y2="249.95" style="fill:none;stroke:#263238;stroke-linecap:round;stroke-linejoin:round"></line><line x1="264.23" y1="267.03" x2="264.76" y2="257.68" style="fill:none;stroke:#263238;stroke-linecap:round;stroke-linejoin:round"></line><path d="M234.7,277.41s4.59-1.84,8.58-9.81" style="fill:none;stroke:#263238;stroke-linecap:round;stroke-linejoin:round"></path><path d="M235.92,272.81s1.84.31,4-10.11" style="fill:none;stroke:#263238;stroke-linecap:round;stroke-linejoin:round"></path><path d="M251.5,272.81c.92-.75,1.87-1.56,2.82-2.45" style="fill:none;stroke:#263238;stroke-linecap:round;stroke-linejoin:round"></path><path d="M236.54,280.79a36.38,36.38,0,0,0,11.08-5.15" style="fill:none;stroke:#263238;stroke-linecap:round;stroke-linejoin:round"></path><path d="M177.37,229.54s3.67-2.73,17.77-6.31,27.34-5.54,37-2.23,13.45,14.55,15.08,15.41,9.44,4.6,17.54,7.67a39.91,39.91,0,0,1,13.12,8.21s1.11,3.12-4.29,9.11-9,4.59-8.47,14.41,2.44,28.76.36,37.75a54.48,54.48,0,0,1-7.7,16.91S240.46,320.25,237,302s-5.34-23.53-7.25-23.75-23.78.59-38-4.39-21.85-11.26-28-19.51-8.15-10.37-5.24-15.6S177.37,229.54,177.37,229.54Z" style="fill:none;stroke:#263238;stroke-linecap:round;stroke-linejoin:round"></path><path d="M220.51,274.53s-2,6.2-1.89,8.53,2.45,2.38,3.26.54a43.73,43.73,0,0,0,2.35-10C224.59,270.19,221.08,271.63,220.51,274.53Z" style="fill:#fff;stroke:#263238;stroke-linecap:round;stroke-linejoin:round"></path><path d="M224.65,274.85s-2,6.2-1.89,8.53,2.45,2.38,3.26.55a44,44,0,0,0,2.35-10C228.73,270.52,225.22,272,224.65,274.85Z" style="fill:#fff;stroke:#263238;stroke-linecap:round;stroke-linejoin:round"></path><path d="M228.32,276.46s-2,6.2-1.89,8.52,2.45,2.39,3.26.55a43.86,43.86,0,0,0,2.35-10C232.4,272.12,228.89,273.56,228.32,276.46Z" style="fill:#fff;stroke:#263238;stroke-linecap:round;stroke-linejoin:round"></path><path d="M231.58,279.45s-1.38,4.26-1.3,5.86,1.68,1.64,2.24.38a29.92,29.92,0,0,0,1.61-6.87C234.38,276.47,232,277.46,231.58,279.45Z" style="fill:#fff;stroke:#263238;stroke-linecap:round;stroke-linejoin:round"></path><path d="M132.93,186.44a17.53,17.53,0,0,1,7-.05c3.85.76,6.51,3.16,11.88,2.57s10-3.38,11-2.16.93,5.67.93,5.67,8.59,6.54,10.67,9.92,2.89,6.84,1.75,9.44l-3.4,7.79s-1.12,2.92,4.11,5.82l5.22,2.91a26.32,26.32,0,0,1-9.46,13.5c-7.64,5.79-11.28,2.8-11.28,2.8s-2.21-5.91-5.74-6.69-6,.63-16.5.22S104.08,205.7,132.93,186.44Z" style="fill:#fff;stroke:#263238;stroke-linecap:round;stroke-linejoin:round"></path><path d="M137.17,194.79s3.47-6.53-3.2-12.85-21.29-6.52-26.26,1.67-2.17,13.44.63,12.35l6.54-2.56s-9.9,4.95-12.72,18.11,2.26,25.28,7.13,33.6,6.78,14.57,1.44,21.83-11.17,5-11.32,8.21-.84,8.29,9.19,11.9,14,.55,14,.55-1.49,8-6.08,11.42-6.21,2.55-6.13,4.13,4.3,9.62,19.15,8.22,18.29-8.56,18.29-8.56-1.22,7,9.64,2.36,14-24.53,13.31-37.51-8.07-27.2-13.13-33-11.07-11.49-11.52-14,1.14-2.6.64-6.07-4.06-4.87-4.06-4.87S144.58,197,137.17,194.79Z" style="fill:#263238;stroke:#263238;stroke-linecap:round;stroke-linejoin:round"></path><path d="M149.89,219.85s-10.45.54-10.5,5.62,10.52,7.07,14.16,3.71,2.22-6.14,2.22-6.14" style="fill:#fff;stroke:#263238;stroke-linecap:round;stroke-linejoin:round"></path><path d="M153.67,194.57c0,.7-1.14,1.33-2.63,1.41s-2.72-.43-2.75-1.13,1.13-1.33,2.62-1.4S153.63,193.87,153.67,194.57Z" style="fill:#263238"></path><path d="M145.82,190.22s-4.88,3.74,1.09,8.83" style="fill:none;stroke:#263238;stroke-linecap:round;stroke-linejoin:round"></path><path d="M167.89,199.55s-2.65,3.95-6.75,4.48" style="fill:none;stroke:#263238;stroke-linecap:round;stroke-linejoin:round"></path><path d="M185.71,234.15a20.73,20.73,0,0,1,7.69-13.36c7-5.49,17.81-5.51,24-6.37s26.29-8.92,26.29-8.92c0-.74,13.63-47.6,13.68-51.34s-.19-3.72-.19-3.72a4.77,4.77,0,0,0-4.08-2c-2.86,0-2.66,1.63-7.7.27s-4.6-2.25-2.13-2.62,4.45-.61,2.78-1.52-4.5-2.87-5.45-4.44-.65-5.32-.65-5.32a11.52,11.52,0,0,1,4.85-5,51.61,51.61,0,0,1,8.12-4c1.23-.31,3.67,1.18,5.73,2.44a21.81,21.81,0,0,1,4.8,4,47.69,47.69,0,0,1,5.19,6.45c1.89,2.89,1.21,4.29,1.35,6.9s-1,9.75-1.16,13.74S261.44,220,261.44,220a23.67,23.67,0,0,0-3.66,2.35c-2.35,1.75-47.69,23.54-47.69,23.54" style="fill:#BFA5E0;stroke:#263238;stroke-linecap:round;stroke-linejoin:round"></path><path d="M243.67,205.5s-10.95,4.39-19.18,7c.31,5.15,1.62,15.43,7,23,12.09-5.88,25-12.25,26.25-13.16a23.67,23.67,0,0,1,3.66-2.35s7.2-56.7,7.37-60.69,1.29-11.14,1.16-13.74.54-4-1.35-6.9a48.34,48.34,0,0,0-5.19-6.45,21.81,21.81,0,0,0-4.8-4c-2.06-1.26-4.5-2.75-5.73-2.44a51.61,51.61,0,0,0-8.12,4,11.52,11.52,0,0,0-4.85,5s-.3,3.75.65,5.32,3.79,3.53,5.45,4.44-1-.18-3.48.19-2.22,2.6,2.83,4,4.84-.25,7.7-.27,3.07,1.2,3.07,1.2.71,1.21.66,4.95S243.63,204.76,243.67,205.5Z" style="fill:#fff;stroke:#263238;stroke-linecap:round;stroke-linejoin:round"></path><path d="M259.14,135.28s-3-6.86-2.46-8.89,2.09-4.78,3.51-3.18-.43,4.69-.43,4.69,9.49,9.19,10,13.17-1.44,4.41-1.44,4.41" style="fill:#fff;stroke:#263238;stroke-linecap:round;stroke-linejoin:round"></path><path d="M257.33,124.68s-3.2-2.5-4.43-.43.6,11.65,2.84,9.87.94-7.73.94-7.73Z" style="fill:#fff;stroke:#263238;stroke-linecap:round;stroke-linejoin:round"></path><path d="M254.3,133.54a11.14,11.14,0,0,1-1.64-5.26c-.16-3.1.42-3.88-.21-4s-3.64-.68-3.66,3.8a14.64,14.64,0,0,0,1.49,7" style="fill:#fff;stroke:#263238;stroke-linecap:round;stroke-linejoin:round"></path><path d="M248.73,126.87s-2.44-1.5-3.6.06-.24,5.11.47,6.81,1.51,2.79,2.23,2.25.78-1.78.69-3.52a29.55,29.55,0,0,1,.27-4.36Z" style="fill:#fff;stroke:#263238;stroke-linecap:round;stroke-linejoin:round"></path><path d="M246.79,139.9a15.14,15.14,0,0,1-2.22-2,9.66,9.66,0,0,1-2.06-6.24,3.06,3.06,0,0,1,2-2.83,10.93,10.93,0,0,0,1.12,4.91c1.25,2.55,1.63,2.53,1.63,2.53" style="fill:#fff;stroke:#263238;stroke-linecap:round;stroke-linejoin:round"></path><path d="M242.92,130c.14-.35-3.15,1.53-2.92,3.63s1.31,6.15,3.19,6.3.91-1.66.33-3.12S242.05,132.31,242.92,130Z" style="fill:#fff;stroke:#263238;stroke-linecap:round;stroke-linejoin:round"></path><path d="M240.32,140.11a7.23,7.23,0,0,0-.69,3.31c.18,1.52,2.71,2.26,4.46,2.55s2.09-.49,1.75-1.53-2.31-1.8-3.42-2.8A11.92,11.92,0,0,0,240.32,140.11Z" style="fill:#fff;stroke:#263238;stroke-linecap:round;stroke-linejoin:round"></path></g></svg>